<svg width="467" height="671" xmlns="http://www.w3.org/2000/svg" xmlns:xlink="http://www.w3.org/1999/xlink" xml:space="preserve" overflow="hidden"><g transform="translate(-1806 -857)"><path d="M2198.2 903 2228 922.742C2205.74 957.098 2175.99 983.847 2138.74 1002.99 2101.5 1022.13 2052.14 1035.38 1990.66 1042.73L1990.66 1045.55C2051.97 1051.53 2101.28 1063.97 2138.61 1082.86 2175.94 1101.74 2205.74 1128.88 2228 1164.26L2198.2 1184C2174.23 1143.15 2134.85 1113.28 2080.05 1094.39 2025.25 1075.51 1972.6 1064.52 1922.08 1061.45L1919 1061.45 1919 1025.55 1922.08 1025.55C1972.6 1022.48 2025.17 1011.24 2079.79 991.838 2134.42 972.438 2173.89 942.825 2198.2 903Z" stroke="#000000" stroke-width="64.1667" stroke-miterlimit="8" fill-rule="evenodd"/><path d="M1919 1113.01C1985.73 1112.67 2040.76 1123.76 2084.11 1146.29 2127.46 1168.82 2165.09 1205.53 2197 1256.41L2168.07 1278C2142.82 1234.82 2110.9 1202.1 2072.33 1179.83 2033.77 1157.55 1982.66 1146.42 1919 1146.42Z" stroke="#000000" stroke-width="64.1667" stroke-miterlimit="8" fill-rule="evenodd"/><path d="M2198.2 903 2228 922.742C2205.74 957.098 2175.99 983.847 2138.74 1002.99 2101.5 1022.13 2052.14 1035.38 1990.66 1042.73L1990.66 1045.55C2051.97 1051.53 2101.28 1063.97 2138.61 1082.86 2175.94 1101.74 2205.74 1128.88 2228 1164.26L2198.2 1184C2174.23 1143.15 2134.85 1113.28 2080.05 1094.39 2025.25 1075.51 1972.6 1064.52 1922.08 1061.45L1919 1061.45 1919 1025.55 1922.08 1025.55C1972.6 1022.48 2025.17 1011.24 2079.79 991.838 2134.42 972.438 2173.89 942.825 2198.2 903Z" stroke="#C00000" stroke-width="18.3333" stroke-miterlimit="8" fill="#C00000" fill-rule="evenodd"/><path d="M1880.8 1201C1905.11 1240.83 1944.58 1270.44 1999.21 1289.84 2053.83 1309.24 2106.4 1320.48 2156.92 1323.55L2160 1323.55 2160 1359.45 2156.92 1359.45C2106.4 1362.52 2053.75 1373.51 1998.95 1392.39 1944.15 1411.28 1904.77 1441.15 1880.8 1482L1851 1462.26C1873.26 1426.88 1903.06 1399.74 1940.39 1380.86 1977.72 1361.97 2027.03 1349.53 2088.34 1343.55L2088.34 1340.73C2026.86 1333.38 1977.5 1320.13 1940.26 1300.99 1903.01 1281.85 1873.26 1255.1 1851 1220.74Z" stroke="#000000" stroke-width="64.1667" stroke-miterlimit="8" fill-rule="evenodd"/><path d="M1880.8 1201C1905.11 1240.83 1944.58 1270.44 1999.21 1289.84 2053.83 1309.24 2106.4 1320.48 2156.92 1323.55L2160 1323.55 2160 1359.45 2156.92 1359.45C2106.4 1362.52 2053.75 1373.51 1998.95 1392.39 1944.15 1411.28 1904.77 1441.15 1880.8 1482L1851 1462.26C1873.26 1426.88 1903.06 1399.74 1940.39 1380.86 1977.72 1361.97 2027.03 1349.53 2088.34 1343.55L2088.34 1340.73C2026.86 1333.38 1977.5 1320.13 1940.26 1300.99 1903.01 1281.85 1873.26 1255.1 1851 1220.74Z" stroke="#215F9A" stroke-width="18.3333" stroke-miterlimit="8" fill="#215F9A" fill-rule="evenodd"/><path d="M1919 1113.01C1985.73 1112.67 2040.76 1123.76 2084.11 1146.29 2127.46 1168.82 2165.09 1205.53 2197 1256.41L2168.07 1278C2142.82 1234.82 2110.9 1202.1 2072.33 1179.83 2033.77 1157.55 1982.66 1146.42 1919 1146.42Z" stroke="#FFFFFF" stroke-width="18.3333" stroke-miterlimit="8" fill="#FFFFFF" fill-rule="evenodd"/></g></svg>