<svg width="884" height="741" xmlns="http://www.w3.org/2000/svg" xmlns:xlink="http://www.w3.org/1999/xlink" xml:space="preserve" overflow="hidden"><g transform="translate(-621 -1271)"><path d="M1151.5 1830.5C1151.5 1734.95 1229.85 1657.5 1326.5 1657.5 1423.15 1657.5 1501.5 1734.95 1501.5 1830.5 1501.5 1926.05 1423.15 2003.5 1326.5 2003.5 1229.85 2003.5 1151.5 1926.05 1151.5 1830.5Z" stroke="#000000" stroke-width="6.875" stroke-miterlimit="8" fill-rule="evenodd"/><path d="M624.5 1508.5C624.5 1412.95 702.85 1335.5 799.5 1335.5 896.15 1335.5 974.5 1412.95 974.5 1508.5 974.5 1604.05 896.15 1681.5 799.5 1681.5 702.85 1681.5 624.5 1604.05 624.5 1508.5Z" stroke="#000000" stroke-width="6.875" stroke-miterlimit="8" fill-rule="evenodd"/><path d="M1216.2 1359 1246 1378.74C1223.74 1413.1 1193.99 1439.85 1156.74 1458.99 1119.5 1478.13 1070.14 1491.38 1008.66 1498.73L1008.66 1501.55C1069.97 1507.53 1119.28 1519.97 1156.61 1538.86 1193.94 1557.74 1223.74 1584.88 1246 1620.26L1216.2 1640C1192.23 1599.15 1152.85 1569.28 1098.05 1550.39 1043.25 1531.51 990.598 1520.52 940.082 1517.45L937 1517.45 937 1481.55 940.082 1481.55C990.598 1478.48 1043.17 1467.24 1097.79 1447.84 1152.42 1428.44 1191.89 1398.83 1216.2 1359Z" stroke="#000000" stroke-width="123.75" stroke-miterlimit="8" fill-rule="evenodd"/><path d="M937 1569.01C1003.97 1568.67 1059.2 1579.76 1102.7 1602.29 1146.21 1624.82 1183.97 1661.53 1216 1712.41L1186.97 1734C1161.62 1690.82 1129.59 1658.1 1090.89 1635.83 1052.18 1613.55 1000.88 1602.42 937 1602.42Z" stroke="#000000" stroke-width="123.75" stroke-miterlimit="8" fill-rule="evenodd"/><path d="M1216.2 1359 1246 1378.74C1223.74 1413.1 1193.99 1439.85 1156.74 1458.99 1119.5 1478.13 1070.14 1491.38 1008.66 1498.73L1008.66 1501.55C1069.97 1507.53 1119.28 1519.97 1156.61 1538.86 1193.94 1557.74 1223.74 1584.88 1246 1620.26L1216.2 1640C1192.23 1599.15 1152.85 1569.28 1098.05 1550.39 1043.25 1531.51 990.598 1520.52 940.082 1517.45L937 1517.45 937 1481.55 940.082 1481.55C990.598 1478.48 1043.17 1467.24 1097.79 1447.84 1152.42 1428.44 1191.89 1398.83 1216.2 1359Z" stroke="#C00000" stroke-width="18.3333" stroke-miterlimit="8" fill="#C00000" fill-rule="evenodd"/><path d="M882.795 1643C907.111 1682.83 946.582 1712.44 1001.21 1731.84 1055.83 1751.24 1108.4 1762.48 1158.92 1765.55L1162 1765.55 1162 1801.45 1158.92 1801.45C1108.4 1804.52 1055.75 1815.51 1000.95 1834.39 946.154 1853.28 906.769 1883.15 882.795 1924L853 1904.26C875.261 1868.88 905.057 1841.74 942.387 1822.86 979.717 1803.97 1029.03 1791.53 1090.34 1785.55L1090.34 1782.73C1028.86 1775.38 979.503 1762.13 942.258 1742.99 905.014 1723.85 875.261 1697.1 853 1662.74Z" stroke="#000000" stroke-width="123.75" stroke-miterlimit="8" fill-rule="evenodd"/><path d="M882.795 1643C907.111 1682.83 946.582 1712.44 1001.21 1731.84 1055.83 1751.24 1108.4 1762.48 1158.92 1765.55L1162 1765.55 1162 1801.45 1158.92 1801.45C1108.4 1804.52 1055.75 1815.51 1000.95 1834.39 946.154 1853.28 906.769 1883.15 882.795 1924L853 1904.26C875.261 1868.88 905.057 1841.74 942.387 1822.86 979.717 1803.97 1029.03 1791.53 1090.34 1785.55L1090.34 1782.73C1028.86 1775.38 979.503 1762.13 942.258 1742.99 905.014 1723.85 875.261 1697.1 853 1662.74Z" stroke="#215F9A" stroke-width="18.3333" stroke-miterlimit="8" fill="#215F9A" fill-rule="evenodd"/><path d="M937 1569.01C1003.97 1568.67 1059.2 1579.76 1102.7 1602.29 1146.21 1624.82 1183.97 1661.53 1216 1712.41L1186.97 1734C1161.62 1690.82 1129.59 1658.1 1090.89 1635.83 1052.18 1613.55 1000.88 1602.42 937 1602.42Z" stroke="#FFFFFF" stroke-width="18.3333" stroke-miterlimit="8" fill="#FFFFFF" fill-rule="evenodd"/><path d="M1215.5 1752.5 1260.18 1752.5 1288.72 1870.1 1323.52 1752.5 1357.48 1752.5 1389.87 1870.1 1420.94 1752.5 1465.5 1752.5 1413 1934.5 1369.4 1934.5 1339.42 1829.03 1307.99 1934.5 1264.51 1934.5Z" stroke="#000000" stroke-width="6.875" stroke-miterlimit="8" fill="#FFFFFF" fill-rule="evenodd"/><path d="M796.056 1403.5C809.839 1403.5 825.32 1406.86 842.5 1413.58L842.5 1475.65C837.64 1469.67 832.682 1465.16 827.627 1462.12 818.392 1456.53 808.478 1453.74 797.882 1453.74 784.468 1453.74 772.803 1457.79 762.888 1465.9 750.348 1476.15 744.079 1490.21 744.079 1508.07 744.079 1525.84 750.348 1539.85 762.888 1550.1 772.803 1558.21 784.468 1562.26 797.882 1562.26 808.478 1562.26 818.392 1559.47 827.627 1553.88 832.585 1550.94 837.542 1546.43 842.5 1540.35L842.5 1602.42C825.611 1609.14 809.984 1612.5 795.619 1612.5 770.577 1612.5 748.155 1604.47 728.354 1588.4 703.118 1567.86 690.5 1541.08 690.5 1508.07 690.5 1474.97 703.118 1448.14 728.354 1427.6 748.155 1411.53 770.723 1403.5 796.056 1403.5Z" stroke="#000000" stroke-width="6.875" stroke-miterlimit="8" fill="#FFFFFF" fill-rule="evenodd"/><path d="M963.5 1677.5C963.5 1664.8 989.915 1654.5 1022.5 1654.5 1055.08 1654.5 1081.5 1664.8 1081.5 1677.5 1081.5 1690.2 1055.08 1700.5 1022.5 1700.5 989.915 1700.5 963.5 1690.2 963.5 1677.5Z" stroke="#000000" stroke-width="6.875" stroke-miterlimit="8" fill-rule="evenodd"/><path d="M1323.42 1630.66 1376.01 1703.26 1340.75 1728.81 1288.16 1656.21Z" stroke="#000000" stroke-width="6.875" stroke-miterlimit="8" fill-rule="evenodd"/></g></svg>