<svg width="2164" height="671" xmlns="http://www.w3.org/2000/svg" xmlns:xlink="http://www.w3.org/1999/xlink" xml:space="preserve" overflow="hidden"><g transform="translate(-2179 -14)"><path d="M4025.79 481.502 4068.69 481.502 4147.61 582.749 4147.61 481.502 4190.51 481.502 4190.51 647.013 4147.61 647.013 4068.69 545.645 4068.69 647.013 4025.79 647.013ZM3946.73 481.502 3989.63 481.502 3989.63 647.013 3946.73 647.013ZM3678.5 481.502 3723.34 481.502 3751.98 588.448 3786.91 481.502 3820.99 481.502 3853.5 588.448 3884.68 481.502 3929.39 481.502 3876.7 647.013 3832.95 647.013 3802.86 551.101 3771.32 647.013 3727.69 647.013ZM4280.52 477.5C4298.33 477.5 4315.77 481.986 4332.85 490.959L4315.69 524.425C4306.32 517.069 4296.87 513.391 4287.34 513.391 4282.73 513.391 4278.62 514.568 4274.98 516.921 4270.86 519.599 4268.8 523.169 4268.8 527.631 4268.8 532.011 4271.5 535.784 4276.91 538.947 4279.33 540.409 4286.6 542.924 4298.7 546.494 4313.88 550.945 4324.69 557.258 4331.15 565.432 4336.72 572.392 4339.5 581.334 4339.5 592.259 4339.5 620.26 4327.25 638.51 4302.76 647.008 4294.22 650.003 4285.04 651.5 4275.21 651.5 4254.58 651.5 4235.45 645.235 4217.8 632.705L4236.17 598.027C4249.09 609.748 4261.72 615.609 4274.08 615.609 4279.65 615.609 4284.37 614.302 4288.25 611.689 4292.77 608.75 4295.03 604.585 4295.03 599.196 4295.03 594.296 4292.52 590.214 4287.52 586.947 4283.81 584.497 4277.55 582.006 4268.76 579.475 4258.1 576.326 4251.4 574.146 4248.66 572.935 4244.3 571.078 4240.59 568.898 4237.52 566.395 4228.73 559.128 4224.33 548.148 4224.33 533.453 4224.33 518.112 4228.88 505.395 4237.98 495.304 4248.62 483.434 4262.8 477.5 4280.52 477.5Z" stroke="#000000" stroke-width="6.875" stroke-miterlimit="8" fill-rule="evenodd"/><path d="M3678.2 60.0002 3708 79.742C3685.74 114.098 3655.99 140.847 3618.74 159.991 3581.5 179.134 3532.14 192.381 3470.66 199.731L3470.66 202.551C3531.97 208.533 3581.28 220.968 3618.61 239.855 3655.94 258.743 3685.74 285.877 3708 321.258L3678.2 341C3654.23 300.149 3614.85 270.28 3560.05 251.393 3505.25 232.506 3452.6 221.524 3402.08 218.447L3399 218.447 3399 182.553 3402.08 182.553C3452.6 179.476 3505.17 168.238 3559.79 148.838 3614.42 129.438 3653.89 99.8253 3678.2 60.0002Z" stroke="#000000" stroke-width="64.1667" stroke-miterlimit="8" fill-rule="evenodd"/><path d="M3399 270.008C3465.97 269.665 3521.2 280.759 3564.7 303.289 3608.21 325.819 3645.97 362.527 3678 413.412L3648.97 435C3623.62 391.824 3591.59 359.1 3552.89 336.827 3514.18 314.554 3462.88 303.417 3399 303.417Z" stroke="#000000" stroke-width="64.1667" stroke-miterlimit="8" fill-rule="evenodd"/><path d="M3678.2 60.0002 3708 79.742C3685.74 114.098 3655.99 140.847 3618.74 159.991 3581.5 179.134 3532.14 192.381 3470.66 199.731L3470.66 202.551C3531.97 208.533 3581.28 220.968 3618.61 239.855 3655.94 258.743 3685.74 285.877 3708 321.258L3678.2 341C3654.23 300.149 3614.85 270.28 3560.05 251.393 3505.25 232.506 3452.6 221.524 3402.08 218.447L3399 218.447 3399 182.553 3402.08 182.553C3452.6 179.476 3505.17 168.238 3559.79 148.838 3614.42 129.438 3653.89 99.8253 3678.2 60.0002Z" stroke="#C00000" stroke-width="18.3333" stroke-miterlimit="8" fill="#C00000" fill-rule="evenodd"/><path d="M3361.8 357C3386.11 396.967 3425.58 426.685 3480.21 446.154 3534.83 465.623 3587.4 476.902 3637.92 479.989L3641 479.989 3641 516.011 3637.92 516.011C3587.4 519.099 3534.75 530.119 3479.95 549.074 3425.15 568.029 3385.77 598.004 3361.8 639L3332 619.188C3354.26 583.681 3384.06 556.45 3421.39 537.495 3458.72 518.541 3508.03 506.062 3569.34 500.059L3569.34 497.228C3507.86 489.852 3458.5 476.558 3421.26 457.347 3384.01 438.135 3354.26 411.29 3332 376.812Z" stroke="#000000" stroke-width="64.1667" stroke-miterlimit="8" fill-rule="evenodd"/><path d="M3361.8 357C3386.11 396.967 3425.58 426.685 3480.21 446.154 3534.83 465.623 3587.4 476.902 3637.92 479.989L3641 479.989 3641 516.011 3637.92 516.011C3587.4 519.099 3534.75 530.119 3479.95 549.074 3425.15 568.029 3385.77 598.004 3361.8 639L3332 619.188C3354.26 583.681 3384.06 556.45 3421.39 537.495 3458.72 518.541 3508.03 506.062 3569.34 500.059L3569.34 497.228C3507.86 489.852 3458.5 476.558 3421.26 457.347 3384.01 438.135 3354.26 411.29 3332 376.812Z" stroke="#215F9A" stroke-width="18.3333" stroke-miterlimit="8" fill="#215F9A" fill-rule="evenodd"/><path d="M3399 270.008C3465.97 269.665 3521.2 280.759 3564.7 303.289 3608.21 325.819 3645.97 362.527 3678 413.412L3648.97 435C3623.62 391.824 3591.59 359.1 3552.89 336.827 3514.18 314.554 3462.88 303.417 3399 303.417Z" stroke="#FFFFFF" stroke-width="18.3333" stroke-miterlimit="8" fill="#FFFFFF" fill-rule="evenodd"/><path d="M2982.58 206.506 2964.58 259.124 3000.35 259.124ZM2418.09 192.111C2408.23 192.111 2399.31 194.88 2391.31 200.419 2383.32 205.957 2377.62 213.335 2374.23 222.552 2372.29 227.808 2371.32 233.144 2371.32 238.561 2371.32 249.718 2375.04 259.703 2382.47 268.516 2391.68 279.431 2403.55 284.889 2418.09 284.889 2432.62 284.889 2444.54 279.472 2453.83 268.639 2461.25 259.987 2464.97 249.961 2464.97 238.561 2464.97 226.918 2461.25 216.852 2453.83 208.362 2444.29 197.528 2432.38 192.111 2418.09 192.111ZM2806.76 190.055 2806.76 231.182 2821.06 231.182C2830.35 231.182 2836.74 229.16 2840.21 225.117 2843.36 221.477 2844.94 216.543 2844.94 210.316 2844.94 204.168 2843.14 199.255 2839.55 195.575 2835.95 191.895 2829.83 190.055 2821.18 190.055ZM3129.84 188.12 3129.84 229.246 3137.84 229.246C3146.9 229.246 3153.41 227.357 3157.37 223.578 3161.65 219.477 3163.79 214.492 3163.79 208.622 3163.79 202.753 3161.65 197.808 3157.37 193.788 3153.32 190.009 3146.82 188.12 3137.84 188.12ZM3241.61 155.46 3335.5 155.46 3335.5 191.264 3284.51 191.264 3284.51 219.449 3332.72 219.449 3332.72 255.253 3284.51 255.253 3284.51 284.768 3335.5 284.768 3335.5 320.573 3241.61 320.573ZM3086.94 155.46 3153.64 155.46C3173.14 155.46 3187.56 161.306 3196.9 172.999 3204.48 182.434 3208.26 193.522 3208.26 206.264 3208.26 220.86 3203.91 232.513 3195.21 241.222 3189.65 246.786 3182 250.657 3172.25 252.834L3224.09 320.573 3170.8 320.573 3129.84 257.189 3129.84 320.573 3086.94 320.573ZM2959.5 155.46 3006.27 155.46 3068.38 320.573 3022.58 320.573 3011.95 291.784 2952.74 291.784 2941.38 320.573 2896.07 320.573ZM2763.86 155.46 2832.13 155.46C2851.55 155.46 2866.29 161.139 2876.36 172.496 2885.06 182.244 2889.41 194.689 2889.41 209.832 2889.41 224.734 2885.9 237.059 2878.89 246.807 2869.79 259.454 2854.69 265.777 2833.58 265.777L2806.76 265.777 2806.76 320.573 2763.86 320.573ZM2557.68 155.46 2600.09 155.46 2633.44 243.52 2668.72 155.46 2711.5 155.46 2736.39 320.573 2693.49 320.573 2681.3 225.497 2641.47 320.573 2624.45 320.573 2586.42 225.497 2572.42 320.573 2529.64 320.573ZM2270.1 151.952C2281.54 151.952 2294.39 154.734 2308.65 160.298L2308.65 211.707C2304.62 206.755 2300.5 203.021 2296.31 200.503 2288.64 195.876 2280.41 193.563 2271.62 193.563 2260.49 193.563 2250.81 196.918 2242.58 203.629 2232.17 212.119 2226.97 223.763 2226.97 238.561 2226.97 253.278 2232.17 264.881 2242.58 273.371 2250.81 280.082 2260.49 283.438 2271.62 283.438 2280.41 283.438 2288.64 281.124 2296.31 276.497 2300.42 274.062 2304.54 270.327 2308.65 265.293L2308.65 316.702C2294.63 322.266 2281.66 325.049 2269.74 325.049 2248.96 325.049 2230.35 318.396 2213.92 305.09 2192.97 288.074 2182.5 265.898 2182.5 238.561 2182.5 211.142 2192.97 188.926 2213.92 171.91 2230.35 158.605 2249.08 151.952 2270.1 151.952ZM2418.09 150.5C2447.09 150.5 2470.09 160.137 2487.08 179.41 2501.99 196.345 2509.44 216.062 2509.44 238.561 2509.44 260.979 2501.99 280.655 2487.08 297.59 2470.09 316.864 2447.09 326.5 2418.09 326.5 2389.17 326.5 2366.21 316.864 2349.21 297.59 2334.31 280.655 2326.86 260.979 2326.86 238.561 2326.86 228.319 2328.87 217.816 2332.9 207.05 2336.93 196.284 2342.32 187.071 2349.09 179.41 2366.09 160.137 2389.09 150.5 2418.09 150.5Z" stroke="#000000" stroke-width="6.875" stroke-miterlimit="8" fill-rule="evenodd"/></g></svg>