<svg width="2312" height="706" xmlns="http://www.w3.org/2000/svg" xmlns:xlink="http://www.w3.org/1999/xlink" xml:space="preserve" overflow="hidden"><g transform="translate(-1119 -483)"><rect x="1122.5" y="486.5" width="2305" height="699" stroke="#FFFFFF" stroke-width="6.875" stroke-miterlimit="8" fill="#FFFFFF"/><path d="M3027.79 963.478 3070.69 963.478 3149.61 1064.14 3149.61 963.478 3192.51 963.478 3192.51 1128.04 3149.61 1128.04 3070.69 1027.25 3070.69 1128.04 3027.79 1128.04ZM2948.73 963.478 2991.63 963.478 2991.63 1128.04 2948.73 1128.04ZM2680.5 963.478 2725.34 963.478 2753.98 1069.81 2788.91 963.478 2822.99 963.478 2855.5 1069.81 2886.68 963.478 2931.39 963.478 2878.7 1128.04 2834.95 1128.04 2804.86 1032.68 2773.32 1128.04 2729.69 1128.04ZM3282.52 959.5C3300.33 959.5 3317.77 963.961 3334.85 972.882L3317.69 1006.16C3308.32 998.842 3298.87 995.185 3289.34 995.185 3284.73 995.185 3280.62 996.355 3276.98 998.694 3272.86 1001.36 3270.8 1004.91 3270.8 1009.34 3270.8 1013.7 3273.5 1017.45 3278.91 1020.59 3281.33 1022.05 3288.6 1024.55 3300.7 1028.1 3315.88 1032.52 3326.69 1038.8 3333.15 1046.93 3338.72 1053.85 3341.5 1062.74 3341.5 1073.6 3341.5 1101.44 3329.25 1119.58 3304.76 1128.03 3296.22 1131.01 3287.04 1132.5 3277.21 1132.5 3256.58 1132.5 3237.45 1126.27 3219.8 1113.81L3238.17 1079.33C3251.09 1090.99 3263.72 1096.82 3276.08 1096.82 3281.65 1096.82 3286.37 1095.52 3290.25 1092.92 3294.77 1090 3297.03 1085.86 3297.03 1080.5 3297.03 1075.63 3294.52 1071.57 3289.52 1068.32 3285.81 1065.88 3279.55 1063.41 3270.76 1060.89 3260.1 1057.76 3253.4 1055.59 3250.66 1054.39 3246.3 1052.54 3242.59 1050.37 3239.52 1047.88 3230.73 1040.66 3226.33 1029.74 3226.33 1015.13 3226.33 999.879 3230.88 987.235 3239.98 977.201 3250.62 965.4 3264.8 959.5 3282.52 959.5Z" stroke="#000000" stroke-width="6.875" stroke-miterlimit="8" fill-rule="evenodd"/><path d="M2680.2 541 2710 560.742C2687.74 595.098 2657.99 621.847 2620.74 640.991 2583.5 660.134 2534.14 673.381 2472.66 680.731L2472.66 683.551C2533.97 689.533 2583.28 701.968 2620.61 720.855 2657.94 739.742 2687.74 766.877 2710 802.258L2680.2 822C2656.23 781.149 2616.85 751.28 2562.05 732.393 2507.25 713.505 2454.6 702.524 2404.08 699.447L2401 699.447 2401 663.553 2404.08 663.553C2454.6 660.476 2507.17 649.238 2561.79 629.838 2616.42 610.438 2655.89 580.825 2680.2 541Z" stroke="#000000" stroke-width="64.1667" stroke-miterlimit="8" fill-rule="evenodd"/><path d="M2401 751.008C2467.97 750.666 2523.2 761.759 2566.7 784.289 2610.21 806.819 2647.97 843.527 2680 894.412L2650.97 916C2625.62 872.824 2593.59 840.1 2554.89 817.827 2516.18 795.554 2464.88 784.418 2401 784.418Z" stroke="#000000" stroke-width="64.1667" stroke-miterlimit="8" fill-rule="evenodd"/><path d="M2680.2 541 2710 560.742C2687.74 595.098 2657.99 621.847 2620.74 640.991 2583.5 660.134 2534.14 673.381 2472.66 680.731L2472.66 683.551C2533.97 689.533 2583.28 701.968 2620.61 720.855 2657.94 739.742 2687.74 766.877 2710 802.258L2680.2 822C2656.23 781.149 2616.85 751.28 2562.05 732.393 2507.25 713.505 2454.6 702.524 2404.08 699.447L2401 699.447 2401 663.553 2404.08 663.553C2454.6 660.476 2507.17 649.238 2561.79 629.838 2616.42 610.438 2655.89 580.825 2680.2 541Z" stroke="#C00000" stroke-width="18.3333" stroke-miterlimit="8" fill="#C00000" fill-rule="evenodd"/><path d="M2363.8 839C2388.11 878.825 2427.58 908.438 2482.21 927.838 2536.83 947.238 2589.4 958.476 2639.92 961.553L2643 961.553 2643 997.447 2639.92 997.447C2589.4 1000.52 2536.75 1011.51 2481.95 1030.39 2427.15 1049.28 2387.77 1079.15 2363.8 1120L2334 1100.26C2356.26 1064.88 2386.06 1037.74 2423.39 1018.86 2460.72 999.968 2510.03 987.533 2571.34 981.551L2571.34 978.731C2509.86 971.381 2460.5 958.134 2423.26 938.991 2386.01 919.847 2356.26 893.098 2334 858.742Z" stroke="#000000" stroke-width="64.1667" stroke-miterlimit="8" fill-rule="evenodd"/><path d="M2363.8 839C2388.11 878.825 2427.58 908.438 2482.21 927.838 2536.83 947.238 2589.4 958.476 2639.92 961.553L2643 961.553 2643 997.447 2639.92 997.447C2589.4 1000.52 2536.75 1011.51 2481.95 1030.39 2427.15 1049.28 2387.77 1079.15 2363.8 1120L2334 1100.26C2356.26 1064.88 2386.06 1037.74 2423.39 1018.86 2460.72 999.968 2510.03 987.533 2571.34 981.551L2571.34 978.731C2509.86 971.381 2460.5 958.134 2423.26 938.991 2386.01 919.847 2356.26 893.098 2334 858.742Z" stroke="#215F9A" stroke-width="18.3333" stroke-miterlimit="8" fill="#215F9A" fill-rule="evenodd"/><path d="M2401 751.008C2467.97 750.666 2523.2 761.759 2566.7 784.289 2610.21 806.819 2647.97 843.527 2680 894.412L2650.97 916C2625.62 872.824 2593.59 840.1 2554.89 817.827 2516.18 795.554 2464.88 784.418 2401 784.418Z" stroke="#FFFFFF" stroke-width="18.3333" stroke-miterlimit="8" fill="#FFFFFF" fill-rule="evenodd"/><path d="M1984.58 687.506 1966.58 740.124 2002.35 740.124ZM1420.09 673.111C1410.23 673.111 1401.31 675.88 1393.31 681.419 1385.32 686.957 1379.62 694.335 1376.23 703.552 1374.29 708.808 1373.32 714.144 1373.32 719.561 1373.32 730.718 1377.04 740.703 1384.47 749.516 1393.68 760.431 1405.55 765.889 1420.09 765.889 1434.62 765.889 1446.54 760.472 1455.83 749.639 1463.26 740.987 1466.97 730.961 1466.97 719.561 1466.97 707.918 1463.26 697.852 1455.83 689.362 1446.29 678.528 1434.38 673.111 1420.09 673.111ZM1808.76 671.055 1808.76 712.182 1823.06 712.182C1832.35 712.182 1838.74 710.16 1842.21 706.117 1845.36 702.477 1846.94 697.543 1846.94 691.316 1846.94 685.168 1845.14 680.255 1841.55 676.574 1837.95 672.895 1831.83 671.055 1823.18 671.055ZM2131.84 669.119 2131.84 710.246 2139.84 710.246C2148.9 710.246 2155.41 708.357 2159.37 704.578 2163.65 700.477 2165.79 695.492 2165.79 689.622 2165.79 683.753 2163.65 678.808 2159.37 674.787 2155.32 671.009 2148.82 669.119 2139.84 669.119ZM2243.61 636.46 2337.5 636.46 2337.5 672.264 2286.51 672.264 2286.51 700.448 2334.72 700.448 2334.72 736.253 2286.51 736.253 2286.51 765.768 2337.5 765.768 2337.5 801.573 2243.61 801.573ZM2088.94 636.46 2155.64 636.46C2175.14 636.46 2189.56 642.306 2198.9 653.999 2206.48 663.434 2210.26 674.522 2210.26 687.264 2210.26 701.86 2205.91 713.513 2197.21 722.222 2191.65 727.786 2184 731.657 2174.25 733.834L2226.09 801.573 2172.8 801.573 2131.84 738.189 2131.84 801.573 2088.94 801.573ZM1961.5 636.46 2008.27 636.46 2070.38 801.573 2024.58 801.573 2013.95 772.784 1954.74 772.784 1943.38 801.573 1898.07 801.573ZM1765.86 636.46 1834.13 636.46C1853.55 636.46 1868.29 642.138 1878.36 653.496 1887.06 663.244 1891.41 675.689 1891.41 690.832 1891.41 705.734 1887.9 718.059 1880.89 727.807 1871.79 740.454 1856.69 746.777 1835.58 746.777L1808.76 746.777 1808.76 801.573 1765.86 801.573ZM1559.68 636.46 1602.09 636.46 1635.44 724.52 1670.72 636.46 1713.5 636.46 1738.39 801.573 1695.49 801.573 1683.3 706.497 1643.47 801.573 1626.45 801.573 1588.42 706.497 1574.42 801.573 1531.64 801.573ZM1272.1 632.952C1283.54 632.952 1296.39 635.734 1310.65 641.298L1310.65 692.707C1306.62 687.755 1302.5 684.02 1298.31 681.503 1290.64 676.876 1282.41 674.563 1273.62 674.563 1262.49 674.563 1252.81 677.918 1244.58 684.629 1234.17 693.119 1228.97 704.763 1228.97 719.561 1228.97 734.277 1234.17 745.881 1244.58 754.371 1252.81 761.082 1262.49 764.438 1273.62 764.438 1282.41 764.438 1290.64 762.124 1298.31 757.497 1302.42 755.062 1306.54 751.327 1310.65 746.293L1310.65 797.702C1296.63 803.266 1283.66 806.049 1271.74 806.049 1250.96 806.049 1232.35 799.396 1215.92 786.09 1194.97 769.074 1184.5 746.898 1184.5 719.561 1184.5 692.142 1194.97 669.926 1215.92 652.91 1232.35 639.604 1251.08 632.952 1272.1 632.952ZM1420.09 631.5C1449.09 631.5 1472.09 641.137 1489.08 660.41 1503.99 677.345 1511.44 697.062 1511.44 719.561 1511.44 741.979 1503.99 761.655 1489.08 778.59 1472.09 797.863 1449.09 807.5 1420.09 807.5 1391.17 807.5 1368.21 797.863 1351.21 778.59 1336.31 761.655 1328.86 741.979 1328.86 719.561 1328.86 709.319 1330.87 698.816 1334.9 688.05 1338.93 677.284 1344.32 668.071 1351.09 660.41 1368.09 641.137 1391.09 631.5 1420.09 631.5Z" stroke="#000000" stroke-width="6.875" stroke-miterlimit="8" fill-rule="evenodd"/></g></svg>