<svg width="2897" height="2293" xmlns="http://www.w3.org/2000/svg" xmlns:xlink="http://www.w3.org/1999/xlink" xml:space="preserve" overflow="hidden"><g transform="translate(-684 -42)"><rect x="689.5" y="45.4999" width="2866" height="2286" stroke="#000000" stroke-width="6.875" stroke-miterlimit="8" fill="#FFFFFF"/><g><g><g><path d="M155 127.875C154.899 123.021 152.623 118.469 148.8 115.475 140.275 108.5 129.425 103.85 118.575 100.75 110.286 98.2124 101.669 96.9069 93 96.875 84.3407 97.0244 75.74 98.3275 67.425 100.75 56.5891 103.912 46.3688 108.891 37.2 115.475 33.3773 118.469 31.1011 123.021 31 127.875L31 158.875 155 158.875Z" transform="matrix(1 0 0 1.00538 1485 278)"/><path d="M87.1875 49.8906C92.225 46.9262 104.625 37.355 104.625 37.355L104.625 37.355C106.582 37.5245 108.443 38.2732 109.972 39.5056 113.693 42.1183 116.844 45.4605 119.234 49.3287 121.384 52.545 123.225 55.1412 123.787 55.9162L123.787 55.9162 124 56.1875 124 56.1875C124.969 54.25 124.93 48.8444 124.252 43.9231 123.302 37.1419 122.527 35.1269 118.187 31.4844 115.422 28.9782 111.732 27.7479 108.016 28.0937 102.974 24.1814 96.9004 21.8248 90.5394 21.3125 80.8519 20.9637 70.2731 26.0206 65.7781 31.9494 58.9775 40.8619 59.7331 46.6744 59.7331 48.7475 59.7331 50.8206 57.35 54.4244 59.0162 54.4244 60.1012 54.4244 61.1669 54.4244 62.2519 54.4244L62.2519 54.4244C68.3937 54.25 80.9294 53.5719 87.1875 49.8906Z" transform="matrix(1 0 0 1.00538 1485 278)"/><path d="M120.939 58.4544C120.842 58.3187 118.711 55.3544 116.114 51.4987 113.982 48.0017 111.153 44.981 107.802 42.625 107.15 42.1501 106.441 41.7595 105.691 41.4625 102.242 44.0781 93.3681 50.7431 89.1444 53.2037 82.4406 57.0787 70.215 58.1056 62.0194 58.28 62.2317 75.3995 76.2819 89.1054 93.4014 88.8931 108.692 88.7036 121.56 77.3921 123.709 62.2519Z" transform="matrix(1 0 0 1.00538 1485 278)"/></g></g></g><g><g><g><path d="M153.062 125.86C152.85 120.227 150.241 114.952 145.894 111.364 139.82 106.208 131.494 101.771 119.869 97.4582 123.953 97.0141 127.958 96.0169 131.773 94.4938 131.773 94.4938 127.393 91.8724 124.676 81.1444 122.954 74.4039 129.545 57.5515 129.601 45.6882 129.601 36.1944 126.904 31.9455 121.813 29.0606 118.871 27.3943 112.094 28.9307 112.094 28.9307 112.094 28.9307 108.591 22.2948 96.875 18.6426 87.2417 16.0194 76.9608 17.3333 68.2969 22.2948 61.0506 26.9758 57.5476 32.1237 57.3791 49.8383 57.2299 66.0707 59.458 80.4895 58.4292 87.2863 57.9541 91.0489 56.5225 94.6269 54.2713 97.679 57.8359 97.9774 61.4154 98.0543 64.9895 97.9096 53.9865 102.083 46.0021 106.388 40.1372 111.364 35.7674 114.969 33.1537 120.276 32.9588 125.937L32.9743 159.979 34.6987 161.13C45.3549 168.235 72.1544 169.919 83.1807 170.312L88.1562 170.5 75.452 111.794C81.1448 113.522 87.0683 114.372 93.0174 114.312 98.964 114.371 104.885 113.522 110.575 111.794L97.8573 170.519 102.811 170.366C114.177 170.018 141.67 168.409 151.534 161.01L153.084 159.848ZM69.7674 63.9375 69.7674 54.1357C70.7123 54.0787 71.653 53.9656 72.5845 53.7966 79.0845 52.9404 85.4278 51.1558 91.4209 48.4976 98.1576 45.1108 102.021 43.4484 107.611 38.3857 108.349 37.6609 109.535 37.672 110.26 38.4103 110.535 38.6899 110.715 39.0486 110.775 39.4359 111.22 42.5146 112.379 49.2939 113.921 51.9986 114.616 53.3283 115.401 54.6094 116.269 55.8329L116.269 63.9375C116.255 76.7723 105.854 87.1735 93.0194 87.1875L93.0194 87.1875C80.1838 87.1747 69.7814 76.773 69.7674 63.9375ZM93.0174 106.562C86.3693 106.755 79.7632 105.448 73.6889 102.74L75.3687 102.05C79.0079 100.565 81.3833 97.0217 81.375 93.091L81.375 92.6551C88.8301 95.6997 97.1815 95.6997 104.637 92.6551L104.637 93.0852C104.627 97.0172 107.002 100.562 110.643 102.048L112.33 102.742C106.261 105.447 99.6601 106.753 93.0174 106.562Z" transform="matrix(1 0 0 1.00538 1866 278)"/></g></g></g><g><g><g><path d="M1464 922.875C1463.9 918.021 1461.62 913.469 1457.8 910.475 1449.28 903.5 1438.43 898.85 1427.57 895.75 1419.29 893.213 1410.67 891.907 1402 891.875 1393.34 892.024 1384.74 893.328 1376.43 895.75 1365.59 898.912 1355.37 903.891 1346.2 910.475 1342.38 913.469 1340.1 918.021 1340 922.875L1340 953.875 1464 953.875Z"/><path d="M1435.15 875.6C1433.37 868.625 1440.19 851.188 1440.25 838.904 1440.25 829.081 1437.46 824.683 1432.19 821.699 1429.14 819.974 1422.13 821.563 1422.13 821.563 1422.13 821.563 1418.51 814.704 1406.38 810.926 1396.41 808.213 1385.78 809.572 1376.81 814.704 1369.31 819.548 1365.69 824.876 1365.52 843.205 1365.36 860.003 1367.67 874.922 1366.6 881.955 1366.11 885.848 1364.63 889.55 1362.3 892.708 1362.3 892.708 1373.93 894.2 1380.42 890.771 1383.68 888.579 1386.78 886.144 1389.68 883.486 1379.73 878.848 1372.49 869.884 1370.03 859.189 1369.78 858.259 1368.09 852.176 1370.79 848.766 1372.26 846.828 1375.63 846.286 1381.25 845.298 1387.98 844.412 1394.54 842.565 1400.74 839.815 1407.71 836.309 1414.18 831.877 1419.96 826.639 1420.72 825.889 1421.95 825.898 1422.7 826.66 1422.99 826.95 1423.17 827.322 1423.23 827.724 1423.7 830.912 1424.8 833.971 1426.49 836.714 1427.28 837.726 1428.25 838.581 1429.36 839.233 1430.65 840.005 1431.76 841.042 1432.61 842.275 1434.01 845.006 1434.8 848.006 1434.94 851.071 1434.81 865.21 1426.41 877.962 1413.47 883.66 1415.91 885.811 1419.11 888.465 1422.63 891.023 1428.45 895.227 1442.49 889.414 1442.49 889.414 1442.49 889.414 1437.96 886.702 1435.15 875.6Z"/><path d="M1431.06 851.188C1430.96 848.846 1430.39 846.547 1429.4 844.426 1428.83 843.624 1428.09 842.962 1427.23 842.488 1425.74 841.596 1424.43 840.448 1423.35 839.098 1421.79 836.853 1420.67 834.336 1420.04 831.677 1414.63 836.219 1408.71 840.119 1402.41 843.302 1395.86 846.214 1388.93 848.171 1381.83 849.115 1378.56 849.696 1374.47 850.413 1373.77 851.149 1372.61 852.66 1373.21 856.516 1373.77 858.143 1377.08 872.113 1388.94 882.188 1402 882.188 1417.5 882.188 1431.06 867.695 1431.06 851.188Z"/></g></g></g><g><g><g><path d="M1396.08 1242.25 1407.94 1242.25 1411.7 1230.63 1392.32 1230.63 1396.08 1242.25Z"/><path d="M1396.37 1246.13 1393.74 1284.35 1402.01 1292.63 1410.28 1284.35 1407.65 1246.13 1396.37 1246.13Z"/><path d="M1464 1251.86C1463.89 1246.18 1461.24 1240.84 1456.77 1237.33 1449.53 1231.4 1441.02 1227.75 1432.09 1224.55L1422.59 1220.65C1421.86 1220.35 1421.38 1219.65 1421.38 1218.86L1421.38 1214.11C1428.56 1208.36 1432.81 1199.73 1432.98 1190.54L1437.92 1182.07C1438.66 1180.33 1438.96 1178.42 1438.78 1176.54 1437.66 1163.84 1429.96 1152.66 1418.5 1147.09 1417.57 1146.65 1416.49 1146.75 1415.66 1147.34L1413.7 1148.7 1411.53 1145.74C1410.87 1144.8 1409.87 1144.17 1408.74 1143.96 1406.72 1143.61 1404.68 1143.44 1402.64 1143.44 1385.19 1143.44 1370.21 1155.86 1366.97 1173L1366.89 1173.43C1365.95 1178.46 1364 1183.25 1361.16 1187.51L1371.02 1187.51 1371.02 1189.94C1371.02 1199.33 1375.29 1208.22 1382.62 1214.09L1382.62 1218.85C1382.62 1219.64 1382.15 1220.34 1381.42 1220.64L1371.93 1224.54C1362.99 1227.73 1354.49 1231.38 1347.3 1237.27 1342.78 1240.81 1340.1 1246.2 1340.01 1251.94L1340.01 1285.84 1341.56 1287.01C1350.06 1293.38 1372.53 1295.43 1385.16 1296.09L1389.71 1296.33 1382.17 1228.71 1384.36 1227.81C1388 1226.32 1390.38 1222.78 1390.38 1218.85L1390.38 1218.66C1397.83 1221.7 1406.18 1221.7 1413.64 1218.66L1413.64 1218.85C1413.63 1222.78 1416 1226.33 1419.64 1227.81L1421.83 1228.71 1414.29 1296.33 1418.85 1296.09C1431.49 1295.44 1453.96 1293.38 1462.45 1287.01L1464 1285.85ZM1378.77 1189.94 1378.77 1187.51 1392.27 1187.51C1412.19 1187.51 1409.48 1171.63 1418.2 1169.36 1420.59 1168.91 1423.07 1169.23 1425.27 1170.27L1425.27 1189.94C1425.27 1202.78 1414.86 1213.19 1402.02 1213.19 1389.18 1213.19 1378.77 1202.78 1378.77 1189.94ZM1448.51 1261.63 1431.07 1261.63 1431.07 1257.75 1448.51 1257.75Z"/></g></g></g><g><g><g><path d="M1447.34 1081.23C1440.36 1074.54 1431.97 1069.5 1422.79 1066.5 1416.15 1063.98 1409.11 1062.67 1402 1062.62 1394.91 1062.78 1387.89 1064.09 1381.21 1066.5 1372.17 1069.81 1363.84 1074.8 1356.66 1081.23 1353.42 1084.54 1351.61 1088.99 1351.62 1093.62L1351.62 1116.88 1400.06 1116.88 1400.06 1078.45 1381.37 1087.58C1381.12 1087.71 1380.85 1087.78 1380.57 1087.77 1380.18 1087.78 1379.79 1087.65 1379.49 1087.41 1378.93 1087.01 1378.65 1086.33 1378.77 1085.66L1381.15 1070.69 1382.45 1070.18C1385.09 1069.29 1387.57 1068.59 1389.97 1068.03 1394.2 1074.67 1403.02 1076.62 1409.66 1072.39 1411.45 1071.25 1412.96 1069.72 1414.09 1067.91 1416.6 1068.51 1419.07 1069.26 1421.49 1070.16L1422.85 1070.67 1425.25 1085.66C1425.37 1086.33 1425.09 1087.01 1424.53 1087.41 1424.22 1087.65 1423.84 1087.78 1423.45 1087.77 1423.17 1087.78 1422.9 1087.71 1422.65 1087.58L1403.94 1078.45 1403.94 1116.88 1452.38 1116.88 1452.38 1093.62C1452.39 1088.99 1450.58 1084.54 1447.34 1081.23Z"/><path d="M1426.59 1020.76C1424.62 1016.26 1421.9 1012.15 1418.53 1008.59 1415.14 1012.14 1411.31 1015.24 1407.13 1017.81 1401.18 1021.23 1394.92 1024.07 1388.44 1026.32 1387.42 1026.66 1386.32 1026.12 1385.98 1025.1 1385.72 1024.32 1385.98 1023.45 1386.64 1022.95 1388.46 1021.28 1389.92 1019.26 1390.92 1017 1391.15 1016.49 1391.34 1016.05 1391.5 1015.6 1390.24 1016.92 1388.85 1018.12 1387.37 1019.19 1384.21 1021.43 1380.7 1023.15 1376.99 1024.28 1375.52 1026.32 1374.46 1028.63 1373.87 1031.08 1373.57 1032.54 1373.38 1034.02 1373.29 1035.5 1379.73 1051.36 1397.81 1059 1413.67 1052.56 1421.27 1049.48 1427.33 1043.51 1430.54 1035.97 1429.84 1030.76 1428.51 1025.65 1426.59 1020.76Z"/><path d="M1374.33 1021.38C1374.6 1021.04 1374.96 1020.8 1375.38 1020.7 1378.85 1019.71 1382.12 1018.13 1385.07 1016.05 1387.92 1013.95 1390.38 1011.35 1392.31 1008.38 1392.68 1007.76 1393.36 1007.39 1394.08 1007.43 1394.79 1007.47 1395.42 1007.9 1395.72 1008.55 1395.9 1008.92 1397.35 1012.42 1394.39 1018.64 1394.13 1019.19 1393.86 1019.69 1393.61 1020.16 1397.56 1018.56 1401.39 1016.67 1405.06 1014.5 1409.51 1011.79 1413.52 1008.42 1416.96 1004.5 1417.3 1004.09 1417.8 1003.83 1418.33 1003.8 1418.88 1003.76 1419.41 1003.95 1419.81 1004.33 1424.19 1008.61 1427.72 1013.69 1430.19 1019.3 1431.37 1022.29 1432.34 1025.36 1433.1 1028.49 1434.5 1026.64 1435.31 1024.41 1435.42 1022.09 1435.43 1012.24 1431.05 1002.9 1423.47 996.614L1429.94 993.418C1430.75 992.99 1431.07 991.983 1430.64 991.168 1430.31 990.531 1429.6 990.181 1428.89 990.298L1419.69 991.964 1421.96 988.69C1422.41 988.016 1422.32 987.11 1421.74 986.539 1421.15 985.972 1420.24 985.923 1419.59 986.423L1414.71 990.104 1409.85 981.25C1409.39 980.45 1408.38 980.17 1407.57 980.624 1406.98 980.96 1406.66 981.622 1406.75 982.296L1407.81 989.446C1405.96 989.121 1404.08 988.952 1402.19 988.942 1383.89 988.963 1369.06 1003.81 1369.06 1022.11 1369.1 1024.18 1369.71 1026.19 1370.83 1027.92 1371.65 1025.58 1372.84 1023.37 1374.33 1021.38Z"/></g></g></g><g><g><g><path d="M1464 1430.88C1463.9 1426.02 1461.62 1421.47 1457.8 1418.48 1449.28 1411.5 1438.43 1406.85 1427.57 1403.75 1419.29 1401.21 1410.67 1399.91 1402 1399.88 1393.34 1400.02 1384.74 1401.33 1376.43 1403.75 1365.59 1406.91 1355.37 1411.89 1346.2 1418.48 1342.38 1421.47 1340.1 1426.02 1340 1430.88L1340 1461.88 1464 1461.88Z"/><path d="M1435.15 1383.6C1433.37 1376.63 1440.19 1359.19 1440.25 1346.9 1440.25 1337.08 1437.46 1332.68 1432.19 1329.7 1429.14 1327.97 1422.13 1329.56 1422.13 1329.56 1422.13 1329.56 1418.51 1322.7 1406.38 1318.93 1396.41 1316.21 1385.78 1317.57 1376.81 1322.7 1369.31 1327.55 1365.69 1332.88 1365.52 1351.21 1365.36 1368 1367.67 1382.92 1366.6 1389.96 1366.11 1393.85 1364.63 1397.55 1362.3 1400.71 1362.3 1400.71 1373.93 1402.2 1380.42 1398.77 1383.68 1396.58 1386.78 1394.14 1389.68 1391.49 1379.73 1386.85 1372.49 1377.88 1370.03 1367.19 1369.78 1366.26 1368.09 1360.18 1370.79 1356.77 1372.26 1354.83 1375.63 1354.29 1381.25 1353.3 1387.98 1352.41 1394.54 1350.57 1400.74 1347.81 1407.71 1344.31 1414.18 1339.88 1419.96 1334.64 1420.72 1333.89 1421.95 1333.9 1422.7 1334.66 1422.99 1334.95 1423.17 1335.32 1423.23 1335.72 1423.7 1338.91 1424.8 1341.97 1426.49 1344.71 1427.28 1345.73 1428.25 1346.58 1429.36 1347.23 1430.65 1348.01 1431.76 1349.04 1432.61 1350.28 1434.01 1353.01 1434.8 1356.01 1434.94 1359.07 1434.81 1373.21 1426.41 1385.96 1413.47 1391.66 1415.91 1393.81 1419.11 1396.47 1422.63 1399.02 1428.45 1403.23 1442.49 1397.41 1442.49 1397.41 1442.49 1397.41 1437.96 1394.7 1435.15 1383.6Z"/><path d="M1431.06 1359.19C1430.96 1356.85 1430.39 1354.55 1429.4 1352.43 1428.83 1351.62 1428.09 1350.96 1427.23 1350.49 1425.74 1349.6 1424.43 1348.45 1423.35 1347.1 1421.79 1344.85 1420.67 1342.34 1420.04 1339.68 1414.63 1344.22 1408.71 1348.12 1402.41 1351.3 1395.86 1354.21 1388.93 1356.17 1381.83 1357.11 1378.56 1357.7 1374.47 1358.41 1373.77 1359.15 1372.61 1360.66 1373.21 1364.52 1373.77 1366.14 1377.08 1380.11 1388.94 1390.19 1402 1390.19 1417.5 1390.19 1431.06 1375.7 1431.06 1359.19Z"/></g></g></g><g><g><g><path d="M153.062 125.86C152.85 120.227 150.241 114.952 145.894 111.364 139.82 106.208 131.494 101.771 119.869 97.4582 123.953 97.0141 127.958 96.0169 131.773 94.4938 131.773 94.4938 127.393 91.8724 124.676 81.1444 122.954 74.4039 129.545 57.5515 129.601 45.6882 129.601 36.1944 126.904 31.9455 121.813 29.0606 118.871 27.3943 112.094 28.9307 112.094 28.9307 112.094 28.9307 108.591 22.2948 96.875 18.6426 87.2417 16.0194 76.9608 17.3333 68.2969 22.2948 61.0506 26.9758 57.5476 32.1237 57.3791 49.8383 57.2299 66.0707 59.458 80.4895 58.4292 87.2863 57.9541 91.0489 56.5225 94.6269 54.2713 97.679 57.8359 97.9774 61.4154 98.0543 64.9895 97.9096 53.9865 102.083 46.0021 106.388 40.1372 111.364 35.7674 114.969 33.1537 120.276 32.9588 125.937L32.9743 159.979 34.6987 161.13C45.3549 168.235 72.1544 169.919 83.1807 170.312L88.1562 170.5 75.452 111.794C81.1448 113.522 87.0683 114.372 93.0174 114.312 98.964 114.371 104.885 113.522 110.575 111.794L97.8573 170.519 102.811 170.366C114.177 170.018 141.67 168.409 151.534 161.01L153.084 159.848ZM69.7674 63.9375 69.7674 54.1357C70.7123 54.0787 71.653 53.9656 72.5845 53.7966 79.0845 52.9404 85.4278 51.1558 91.4209 48.4976 98.1576 45.1108 102.021 43.4484 107.611 38.3857 108.349 37.6609 109.535 37.672 110.26 38.4103 110.535 38.6899 110.715 39.0486 110.775 39.4359 111.22 42.5146 112.379 49.2939 113.921 51.9986 114.616 53.3283 115.401 54.6094 116.269 55.8329L116.269 63.9375C116.255 76.7723 105.854 87.1735 93.0194 87.1875L93.0194 87.1875C80.1838 87.1747 69.7814 76.773 69.7674 63.9375ZM93.0174 106.562C86.3693 106.755 79.7632 105.448 73.6889 102.74L75.3687 102.05C79.0079 100.565 81.3833 97.0217 81.375 93.091L81.375 92.6551C88.8301 95.6997 97.1815 95.6997 104.637 92.6551L104.637 93.0852C104.627 97.0172 107.002 100.562 110.643 102.048L112.33 102.742C106.261 105.447 99.6601 106.753 93.0174 106.562Z" transform="matrix(1 0 0 1 1309 446)"/></g></g></g><g><g><g><path d="M2204.83 406.563C2204.73 401.682 2202.44 397.106 2198.6 394.096 2190.03 387.083 2179.12 382.408 2168.21 379.292 2159.88 376.741 2151.22 375.428 2142.5 375.396 2133.79 375.546 2125.15 376.856 2116.79 379.292 2105.89 382.471 2095.62 387.477 2086.4 394.096 2082.56 397.106 2080.27 401.682 2080.17 406.563L2080.17 437.729 2204.83 437.729Z"/><path d="M2136.66 328.159C2141.72 325.179 2154.19 315.556 2154.19 315.556L2154.19 315.556C2156.15 315.726 2158.03 316.479 2159.56 317.718 2163.3 320.345 2166.47 323.705 2168.87 327.594 2171.04 330.828 2172.89 333.438 2173.45 334.217L2173.45 334.217 2173.67 334.49 2173.67 334.49C2174.64 332.542 2174.6 327.107 2173.92 322.159 2172.97 315.342 2172.19 313.316 2167.82 309.654 2165.04 307.134 2161.33 305.897 2157.6 306.245 2152.53 302.311 2146.42 299.942 2140.03 299.427 2130.29 299.077 2119.65 304.161 2115.13 310.121 2108.29 319.082 2109.05 324.925 2109.05 327.01 2109.05 329.094 2106.66 332.717 2108.33 332.717 2109.42 332.717 2110.5 332.717 2111.59 332.717L2111.59 332.717C2117.76 332.542 2130.36 331.86 2136.66 328.159Z"/><path d="M2170.59 336.769C2170.49 336.632 2168.35 333.652 2165.74 329.776 2163.59 326.26 2160.75 323.223 2157.38 320.854 2156.73 320.377 2156.01 319.984 2155.26 319.686 2151.79 322.315 2142.87 329.016 2138.62 331.49 2131.88 335.386 2119.59 336.418 2111.35 336.593 2111.57 353.805 2125.69 367.585 2142.9 367.371 2158.28 367.181 2171.21 355.808 2173.37 340.587Z"/></g></g></g><g><g><g><path d="M2371.08 401.888C2364.07 395.162 2355.64 390.102 2346.4 387.083 2339.72 384.55 2332.64 383.231 2325.5 383.188 2318.37 383.348 2311.31 384.664 2304.6 387.083 2295.51 390.406 2287.13 395.43 2279.92 401.888 2276.66 405.218 2274.84 409.695 2274.85 414.354L2274.85 437.729 2323.55 437.729 2323.55 399.102 2304.75 408.277C2304.51 408.407 2304.23 408.474 2303.96 408.472 2303.56 408.478 2303.18 408.347 2302.87 408.101 2302.3 407.709 2302.02 407.023 2302.14 406.348L2304.54 391.291 2305.85 390.784C2308.49 389.888 2310.99 389.187 2313.4 388.622 2317.66 395.299 2326.52 397.261 2333.2 393.004 2335 391.855 2336.52 390.318 2337.66 388.505 2340.18 389.105 2342.66 389.86 2345.1 390.765L2346.46 391.271 2348.88 406.348C2349 407.023 2348.72 407.709 2348.15 408.101 2347.84 408.347 2347.46 408.478 2347.06 408.472 2346.79 408.474 2346.51 408.407 2346.26 408.277L2327.45 399.102 2327.45 437.729 2376.15 437.729 2376.15 414.354C2376.16 409.695 2374.34 405.218 2371.08 401.888Z"/><path d="M2350.22 341.093C2348.24 336.578 2345.5 332.439 2342.12 328.86 2338.71 332.428 2334.86 335.544 2330.66 338.132 2324.68 341.565 2318.38 344.428 2311.86 346.684 2310.85 347.028 2309.74 346.482 2309.4 345.462 2309.13 344.674 2309.39 343.802 2310.05 343.294 2311.89 341.624 2313.36 339.586 2314.36 337.314 2314.59 336.808 2314.79 336.36 2314.94 335.912 2313.67 337.238 2312.28 338.444 2310.79 339.515 2307.61 341.771 2304.08 343.5 2300.35 344.638 2298.87 346.692 2297.81 349.014 2297.22 351.476 2296.92 352.941 2296.73 354.425 2296.63 355.917 2303.11 371.865 2321.28 379.545 2337.23 373.07 2344.87 369.97 2350.97 363.97 2354.19 356.384 2353.49 351.146 2352.15 346.012 2350.22 341.093Z"/><path d="M2297.68 341.716C2297.95 341.379 2298.32 341.14 2298.74 341.035 2302.22 340.039 2305.52 338.458 2308.48 336.36 2311.35 334.246 2313.81 331.633 2315.76 328.646 2316.13 328.023 2316.81 327.656 2317.53 327.691 2318.25 327.733 2318.89 328.168 2319.19 328.821 2319.36 329.191 2320.82 332.717 2317.84 338.97 2317.59 339.515 2317.32 340.022 2317.07 340.489 2321.04 338.882 2324.89 336.981 2328.58 334.801 2333.05 332.079 2337.09 328.69 2340.54 324.75 2340.88 324.335 2341.38 324.081 2341.92 324.049 2342.47 324.009 2343 324.199 2343.4 324.575 2347.81 328.879 2351.36 333.991 2353.84 339.632 2355.03 342.638 2356.01 345.723 2356.76 348.865 2358.18 347.01 2358.99 344.768 2359.1 342.437 2359.11 332.535 2354.71 323.143 2347.08 316.822L2353.59 313.608C2354.41 313.178 2354.72 312.166 2354.29 311.346 2353.96 310.706 2353.25 310.354 2352.54 310.472L2343.28 312.147 2345.56 308.855C2346.02 308.177 2345.93 307.267 2345.35 306.693 2344.76 306.123 2343.84 306.073 2343.19 306.576L2338.28 310.277 2333.39 301.375C2332.93 300.571 2331.91 300.289 2331.1 300.746 2330.51 301.084 2330.18 301.749 2330.27 302.427L2331.34 309.615C2329.48 309.288 2327.59 309.119 2325.69 309.108 2307.29 309.13 2292.39 324.054 2292.39 342.457 2292.42 344.531 2293.04 346.554 2294.16 348.3 2294.99 345.939 2296.18 343.719 2297.68 341.716Z"/></g></g></g><g><g><g><path d="M2514.55 394.875 2526.47 394.875 2530.25 383.188 2510.77 383.188 2514.55 394.875Z"/><path d="M2514.84 398.771 2512.19 437.203 2520.51 445.521 2528.83 437.203 2526.18 398.771 2514.84 398.771Z"/><path d="M2582.83 404.537C2582.72 398.822 2580.05 393.459 2575.56 389.927 2568.28 383.971 2559.73 380.293 2550.75 377.083L2541.2 373.162C2540.47 372.861 2539.99 372.15 2539.99 371.36L2539.99 366.58C2547.2 360.806 2551.47 352.125 2551.65 342.887L2556.61 334.373C2557.36 332.618 2557.65 330.706 2557.48 328.808 2556.35 316.042 2548.61 304.803 2537.08 299.199 2536.16 298.764 2535.07 298.861 2534.23 299.454L2532.26 300.818 2530.09 297.844C2529.42 296.905 2528.41 296.264 2527.27 296.053 2525.25 295.704 2523.2 295.529 2521.14 295.531 2503.59 295.534 2488.53 308.017 2485.28 325.257L2485.2 325.681C2484.25 330.74 2482.3 335.554 2479.44 339.837L2489.35 339.837 2489.35 342.281C2489.35 351.728 2493.65 360.662 2501.02 366.566L2501.02 371.35C2501.02 372.14 2500.54 372.852 2499.81 373.152L2490.27 377.065C2481.28 380.277 2472.74 383.949 2465.5 389.865 2460.96 393.423 2458.27 398.844 2458.18 404.615L2458.18 438.703 2459.74 439.872C2468.28 446.279 2490.87 448.343 2503.56 449.004L2508.15 449.241 2500.57 381.259 2502.77 380.355C2506.43 378.864 2508.82 375.302 2508.81 371.35L2508.81 371.155C2516.31 374.216 2524.7 374.216 2532.2 371.155L2532.2 371.35C2532.19 375.302 2534.58 378.866 2538.24 380.359L2540.44 381.263 2532.86 449.245 2537.44 449.008C2550.15 448.347 2572.74 446.281 2581.28 439.876L2582.84 438.707ZM2497.14 342.281 2497.14 339.837 2510.72 339.837C2530.74 339.837 2528.02 323.877 2536.78 321.593 2539.19 321.144 2541.68 321.464 2543.89 322.508L2543.89 342.281C2543.89 355.191 2533.43 365.656 2520.52 365.656 2507.61 365.656 2497.14 355.191 2497.14 342.281ZM2567.26 414.354 2549.73 414.354 2549.73 410.458 2567.26 410.458Z"/></g></g></g><g><g><g><path d="M155 127.875C154.899 123.021 152.623 118.469 148.8 115.475 140.275 108.5 129.425 103.85 118.575 100.75 110.286 98.2124 101.669 96.9069 93 96.875 84.3407 97.0244 75.74 98.3275 67.425 100.75 56.5891 103.912 46.3688 108.891 37.2 115.475 33.3773 118.469 31.1011 123.021 31 127.875L31 158.875 155 158.875Z" transform="matrix(1 0 0 1.00538 1680 278)"/><path d="M126.151 80.6C124.368 73.625 131.188 56.1875 131.246 43.9037 131.246 34.0806 128.456 29.6825 123.186 26.6987 120.144 24.9744 113.131 26.5631 113.131 26.5631 113.131 26.5631 109.507 19.7044 97.3787 15.9262 87.4124 13.2128 76.7763 14.572 67.8125 19.7044 60.3144 24.5481 56.6912 29.8762 56.5169 48.205 56.3619 65.0031 58.6675 79.9219 57.6019 86.955 57.1105 90.848 55.6297 94.5502 53.3006 97.7081 53.3006 97.7081 64.9256 99.2 71.4162 95.7706 74.6825 93.5791 77.7784 91.1439 80.6775 88.4856 70.7338 83.848 63.4851 74.8834 61.0312 64.1894 60.7794 63.2594 59.0937 57.1756 61.7869 53.7656 63.2594 51.8281 66.6306 51.2856 72.2494 50.2975 78.9752 49.4115 85.5393 47.565 91.7406 44.8144 98.7117 41.3088 105.177 36.877 110.961 31.6394 111.723 30.8886 112.95 30.8979 113.701 31.6603 113.986 31.9501 114.173 32.3223 114.235 32.7244 114.696 35.9116 115.804 38.9707 117.49 41.7144 118.28 42.7261 119.252 43.5806 120.357 44.2331 121.646 45.005 122.755 46.0418 123.612 47.275 125.012 50.0055 125.805 53.0059 125.937 56.0712 125.811 70.21 117.41 82.9622 104.47 88.66 106.911 90.8106 110.108 93.465 113.634 96.0225 119.447 100.227 133.494 94.4144 133.494 94.4144 133.494 94.4144 128.96 91.7019 126.151 80.6Z" transform="matrix(1 0 0 1.00538 1680 278)"/><path d="M122.062 56.1875C121.959 53.8456 121.393 51.5474 120.396 49.4256 119.829 48.6239 119.087 47.9614 118.226 47.4881 116.744 46.5955 115.433 45.4477 114.351 44.0975 112.792 41.8531 111.668 39.3359 111.038 36.6769 105.629 41.2186 99.7124 45.1193 93.4069 48.3019 86.8614 51.2135 79.9321 53.171 72.8306 54.1144 69.5562 54.6956 65.4681 55.4125 64.7706 56.1487 63.6081 57.66 64.2087 61.5156 64.7706 63.1431 68.0837 77.1125 79.9412 87.1875 93 87.1875 108.5 87.1875 122.062 72.695 122.062 56.1875Z" transform="matrix(1 0 0 1.00538 1680 278)"/></g></g></g><g><g><g><path d="M1464 746.875C1463.9 742.021 1461.62 737.469 1457.8 734.475 1449.28 727.5 1438.43 722.85 1427.57 719.75 1419.29 717.213 1410.67 715.907 1402 715.875 1393.34 716.024 1384.74 717.328 1376.43 719.75 1365.59 722.912 1355.37 727.891 1346.2 734.475 1342.38 737.469 1340.1 742.021 1340 746.875L1340 777.875 1464 777.875Z"/><path d="M1396.19 668.891C1401.22 665.926 1413.62 656.355 1413.62 656.355L1413.62 656.355C1415.58 656.525 1417.44 657.273 1418.97 658.506 1422.69 661.118 1425.84 664.461 1428.23 668.329 1430.38 671.545 1432.22 674.141 1432.79 674.916L1432.79 674.916 1433 675.188 1433 675.188C1433.97 673.25 1433.93 667.844 1433.25 662.923 1432.3 656.142 1431.53 654.127 1427.19 650.484 1424.42 647.978 1420.73 646.748 1417.02 647.094 1411.97 643.181 1405.9 640.825 1399.54 640.313 1389.85 639.964 1379.27 645.021 1374.78 650.949 1367.98 659.862 1368.73 665.674 1368.73 667.748 1368.73 669.821 1366.35 673.424 1368.02 673.424 1369.1 673.424 1370.17 673.424 1371.25 673.424L1371.25 673.424C1377.39 673.25 1389.93 672.572 1396.19 668.891Z"/><path d="M1429.94 677.454C1429.84 677.319 1427.71 674.354 1425.11 670.499 1422.98 667.002 1420.15 663.981 1416.8 661.625 1416.15 661.15 1415.44 660.76 1414.69 660.463 1411.24 663.078 1402.37 669.743 1398.14 672.204 1391.44 676.079 1379.21 677.106 1371.02 677.28 1371.23 694.4 1385.28 708.106 1402.4 707.893 1417.69 707.704 1430.56 696.392 1432.71 681.252Z"/></g></g></g><g><g><g><path d="M2769.89 404.537C2769.67 398.873 2767.05 393.57 2762.68 389.962 2756.57 384.779 2748.2 380.318 2736.51 375.982 2740.62 375.536 2744.65 374.533 2748.48 373.002 2748.48 373.002 2744.08 370.366 2741.35 359.581 2739.61 352.804 2746.24 335.861 2746.3 323.934 2746.3 314.389 2743.59 310.117 2738.47 307.217 2735.51 305.542 2728.7 307.086 2728.7 307.086 2728.7 307.086 2725.17 300.415 2713.4 296.743 2703.71 294.106 2693.37 295.427 2684.66 300.415 2677.38 305.121 2673.86 310.297 2673.69 328.106 2673.54 344.426 2675.78 358.922 2674.74 365.756 2674.27 369.539 2672.83 373.136 2670.56 376.204 2674.15 376.504 2677.75 376.582 2681.34 376.436 2670.28 380.632 2662.25 384.96 2656.35 389.962 2651.96 393.587 2649.33 398.922 2649.14 404.615L2649.15 438.84 2650.89 439.997C2661.6 447.14 2688.54 448.832 2699.63 449.228L2704.63 449.417 2691.86 390.395C2697.58 392.133 2703.54 392.987 2709.52 392.927 2715.5 392.986 2721.45 392.132 2727.17 390.395L2714.38 449.436 2719.36 449.282C2730.79 448.932 2758.43 447.315 2768.35 439.876L2769.91 438.707ZM2686.14 342.281 2686.14 332.427C2687.09 332.37 2688.04 332.256 2688.97 332.086 2695.51 331.225 2701.89 329.431 2707.91 326.758 2714.69 323.353 2718.57 321.682 2724.19 316.592 2724.93 315.863 2726.12 315.875 2726.85 316.617 2727.13 316.898 2727.31 317.259 2727.37 317.648 2727.82 320.743 2728.98 327.559 2730.53 330.278 2731.23 331.615 2732.02 332.903 2732.89 334.133L2732.89 342.281C2732.88 355.185 2722.42 365.642 2709.52 365.656L2709.52 365.656C2696.61 365.643 2686.16 355.186 2686.14 342.281ZM2709.52 385.135C2702.83 385.329 2696.19 384.015 2690.09 381.292L2691.77 380.599C2695.43 379.106 2697.82 375.543 2697.81 371.592L2697.81 371.153C2705.31 374.214 2713.7 374.214 2721.2 371.153L2721.2 371.586C2721.19 375.539 2723.58 379.103 2727.24 380.597L2728.93 381.294C2722.83 384.014 2716.2 385.327 2709.52 385.135Z"/></g></g></g><g><g><g><path d="M155 127.875C154.899 123.021 152.623 118.469 148.8 115.475 140.275 108.5 129.425 103.85 118.575 100.75 110.286 98.2124 101.669 96.9069 93 96.875 84.3407 97.0244 75.74 98.3275 67.425 100.75 56.5891 103.912 46.3688 108.891 37.2 115.475 33.3773 118.469 31.1011 123.021 31 127.875L31 158.875 155 158.875Z" transform="matrix(1 0 0 1.00538 2792 278)"/><path d="M126.151 80.6C124.368 73.625 131.188 56.1875 131.246 43.9037 131.246 34.0806 128.456 29.6825 123.186 26.6987 120.144 24.9744 113.131 26.5631 113.131 26.5631 113.131 26.5631 109.507 19.7044 97.3787 15.9262 87.4124 13.2128 76.7763 14.572 67.8125 19.7044 60.3144 24.5481 56.6912 29.8762 56.5169 48.205 56.3619 65.0031 58.6675 79.9219 57.6019 86.955 57.1105 90.848 55.6297 94.5502 53.3006 97.7081 53.3006 97.7081 64.9256 99.2 71.4162 95.7706 74.6825 93.5791 77.7784 91.1439 80.6775 88.4856 70.7338 83.848 63.4851 74.8834 61.0312 64.1894 60.7794 63.2594 59.0937 57.1756 61.7869 53.7656 63.2594 51.8281 66.6306 51.2856 72.2494 50.2975 78.9752 49.4115 85.5393 47.565 91.7406 44.8144 98.7117 41.3088 105.177 36.877 110.961 31.6394 111.723 30.8886 112.95 30.8979 113.701 31.6603 113.986 31.9501 114.173 32.3223 114.235 32.7244 114.696 35.9116 115.804 38.9707 117.49 41.7144 118.28 42.7261 119.252 43.5806 120.357 44.2331 121.646 45.005 122.755 46.0418 123.612 47.275 125.012 50.0055 125.805 53.0059 125.937 56.0712 125.811 70.21 117.41 82.9622 104.47 88.66 106.911 90.8106 110.108 93.465 113.634 96.0225 119.447 100.227 133.494 94.4144 133.494 94.4144 133.494 94.4144 128.96 91.7019 126.151 80.6Z" transform="matrix(1 0 0 1.00538 2792 278)"/><path d="M122.062 56.1875C121.959 53.8456 121.393 51.5474 120.396 49.4256 119.829 48.6239 119.087 47.9614 118.226 47.4881 116.744 46.5955 115.433 45.4477 114.351 44.0975 112.792 41.8531 111.668 39.3359 111.038 36.6769 105.629 41.2186 99.7124 45.1193 93.4069 48.3019 86.8614 51.2135 79.9321 53.171 72.8306 54.1144 69.5562 54.6956 65.4681 55.4125 64.7706 56.1487 63.6081 57.66 64.2087 61.5156 64.7706 63.1431 68.0837 77.1125 79.9412 87.1875 93 87.1875 108.5 87.1875 122.062 72.695 122.062 56.1875Z" transform="matrix(1 0 0 1.00538 2792 278)"/></g></g></g><g><g><g><path d="M138.337 123.225C131.365 116.535 122.974 111.502 113.789 108.5 107.146 105.98 100.105 104.668 93 104.625 85.9064 104.785 78.8855 106.093 72.2106 108.5 63.1671 111.805 54.8359 116.802 47.6625 123.225 44.4224 126.538 42.6132 130.991 42.625 135.625L42.625 158.875 91.0625 158.875 91.0625 120.454 72.3656 129.58C72.1211 129.71 71.8481 129.776 71.5712 129.774 71.1779 129.78 70.7947 129.65 70.4862 129.406 69.9265 129.015 69.6463 128.333 69.7694 127.662L72.1525 112.685 73.4506 112.181C76.0856 111.29 78.5656 110.592 80.9681 110.031 85.2017 116.671 94.0174 118.623 100.658 114.389 102.451 113.246 103.965 111.718 105.09 109.914 107.601 110.511 110.072 111.262 112.491 112.162L113.847 112.666 116.25 127.662C116.373 128.333 116.093 129.015 115.533 129.406 115.225 129.65 114.841 129.78 114.448 129.774 114.171 129.776 113.898 129.71 113.654 129.58L94.9375 120.454 94.9375 158.875 143.375 158.875 143.375 135.625C143.387 130.991 141.578 126.538 138.337 123.225Z" transform="matrix(1 0 0 1.00538 3001 278)"/><path d="M117.587 62.7556C115.623 58.2647 112.896 54.1479 109.527 50.5881 106.139 54.1368 102.311 57.2363 98.1344 59.8106 92.1822 63.2251 85.9225 66.0728 79.4375 68.3162 78.4238 68.6592 77.3243 68.1153 76.9813 67.1016 76.7159 66.3169 76.9788 65.4501 77.6356 64.945 79.4629 63.2834 80.9216 61.257 81.9175 58.9969 82.15 58.4931 82.3437 58.0475 82.4987 57.6019 81.2365 58.9211 79.855 60.121 78.3719 61.1862 75.205 63.4295 71.6989 65.1498 67.9869 66.2819 66.5151 68.3246 65.4555 70.6345 64.8675 73.0825 64.5734 74.5401 64.379 76.0161 64.2862 77.5 70.7265 93.3633 88.807 101.002 104.671 94.562 112.267 91.4781 118.332 85.5104 121.539 77.965 120.836 72.755 119.509 67.6486 117.587 62.7556Z" transform="matrix(1 0 0 1.00538 3001 278)"/><path d="M65.3325 63.3756C65.597 63.0404 65.9649 62.8021 66.3787 62.6975 69.8478 61.707 73.1236 60.1346 76.0662 58.0475 78.9223 55.9453 81.3767 53.3463 83.3125 50.375 83.6785 49.7558 84.3572 49.3904 85.0756 49.4256 85.79 49.4673 86.4231 49.8993 86.7225 50.5494 86.8969 50.9175 88.35 54.4244 85.3856 60.6437 85.1337 61.1862 84.8625 61.69 84.6106 62.155 88.5627 60.5564 92.3903 58.6654 96.0612 56.4975 100.512 53.79 104.524 50.4188 107.957 46.5 108.3 46.0871 108.798 45.8347 109.333 45.8025 109.876 45.7624 110.41 45.9523 110.806 46.3256 115.194 50.6069 118.72 55.6913 121.191 61.3025 122.373 64.292 123.344 67.3609 124.097 70.4862 125.504 68.641 126.315 66.4105 126.422 64.0925 126.432 54.2428 122.049 44.9017 114.467 38.6144L120.939 35.4175C121.754 34.9899 122.068 33.9828 121.64 33.1679 121.306 32.5314 120.602 32.1807 119.892 32.2981L110.689 33.9644 112.956 30.69C113.414 30.0159 113.325 29.1104 112.743 28.5394 112.154 27.9723 111.239 27.9229 110.592 28.4231L105.71 32.1044 100.847 23.25C100.392 22.4498 99.3751 22.1698 98.5749 22.6244 97.9836 22.9603 97.6558 23.6222 97.7469 24.2962L98.8125 31.4456C96.9569 31.1207 95.0774 30.9523 93.1937 30.9419 74.8896 30.9632 60.0625 45.8077 60.0625 64.1119 60.1014 66.1751 60.7117 68.1872 61.8256 69.9244 62.6545 67.5757 63.8371 65.3674 65.3325 63.3756Z" transform="matrix(1 0 0 1.00538 3001 278)"/></g></g></g><path d="M0 0C27.3384-1.0205e-15 49.5006 3.69333 49.5006 8.24929L49.5006 504.751C49.5006 509.307 71.6627 513 99.0011 513 71.6627 513 49.5006 516.693 49.5006 521.249L49.5006 1017.75C49.5006 1022.31 27.3384 1026-8.16402e-15 1026" stroke="#00B0F0" stroke-width="10.3125" stroke-miterlimit="8" fill="none" fill-rule="evenodd" transform="matrix(-1 0 0 1 1338 445)"/><path d="M0 0C27.334 0 49.4927 3.69253 49.4927 8.24751L49.4927 831.753C49.4927 836.307 71.6513 840 98.9853 840 71.6513 840 49.4927 843.693 49.4927 848.247L49.4927 1671.75C49.4927 1676.31 27.334 1680-6.68399e-15 1680" stroke="#00B0F0" stroke-width="10.3125" stroke-miterlimit="8" fill="none" fill-rule="evenodd" transform="matrix(-6.12323e-17 -1 -1 6.12323e-17 3175 309)"/><text font-family="Aptos,Aptos_MSFontService,sans-serif" font-weight="700" font-size="83" transform="matrix(1 0 0 1 1579.68 193)">Received Experimental Intervention</text><text font-family="Aptos,Aptos_MSFontService,sans-serif" font-weight="700" font-size="83" transform="matrix(1 0 0 1 818.664 871)">Received </text><text font-family="Aptos,Aptos_MSFontService,sans-serif" font-weight="700" font-size="83" transform="matrix(1 0 0 1 849.097 970)">Control </text><text font-family="Aptos,Aptos_MSFontService,sans-serif" font-weight="700" font-size="83" transform="matrix(1 0 0 1 762.403 1069)">Intervention</text><g><g><g><path d="M121.625 30.7708 109.229 18.375 70 57.6041 30.7708 18.375 18.375 30.7708 57.6041 70 18.375 109.229 30.7708 121.625 70 82.3958 109.229 121.625 121.625 109.229 82.3958 70Z" fill="#C00000" transform="matrix(1 0 0 1 1517 644)"/></g></g></g><g><g><g><path d="M125.562 23.0417 50.8958 93.6249 15.0208 56.875 2.625 68.6874 50.3125 117.687 62.8541 106.021 137.375 35.2916Z" fill="#13501B" transform="matrix(1 0 0 1 3024 644)"/></g></g></g><g><g><g><path d="M1819.62 837.771 1807.23 825.375 1768 864.604 1728.77 825.375 1716.38 837.771 1755.6 877 1716.38 916.229 1728.77 928.625 1768 889.396 1807.23 928.625 1819.62 916.229 1780.4 877Z" fill="#C00000"/></g></g></g><g><g><g><path d="M121.625 30.7708 109.229 18.375 70 57.6041 30.7708 18.375 18.375 30.7708 57.6041 70 18.375 109.229 30.7708 121.625 70 82.3958 109.229 121.625 121.625 109.229 82.3958 70Z" fill="#C00000" transform="matrix(1 0 0 1 1891 1316)"/></g></g></g><g><g><g><path d="M2197.63 1346.77 2185.23 1334.37 2146 1373.6 2106.77 1334.37 2094.38 1346.77 2133.6 1386 2094.38 1425.23 2106.77 1437.63 2146 1398.4 2185.23 1437.63 2197.63 1425.23 2158.4 1386Z" fill="#C00000"/></g></g></g><g><g><g><path d="M121.625 30.7708 109.229 18.375 70 57.6041 30.7708 18.375 18.375 30.7708 57.6041 70 18.375 109.229 30.7708 121.625 70 82.3958 109.229 121.625 121.625 109.229 82.3958 70Z" fill="#C00000" transform="matrix(1 0 0 1 2267 1316)"/></g></g></g><g><g><g><path d="M121.625 30.7708 109.229 18.375 70 57.6041 30.7708 18.375 18.375 30.7708 57.6041 70 18.375 109.229 30.7708 121.625 70 82.3958 109.229 121.625 121.625 109.229 82.3958 70Z" fill="#C00000" transform="matrix(1 0 0 1 2447 1316)"/></g></g></g><g><g><g><path d="M121.625 30.7708 109.229 18.375 70 57.6041 30.7708 18.375 18.375 30.7708 57.6041 70 18.375 109.229 30.7708 121.625 70 82.3958 109.229 121.625 121.625 109.229 82.3958 70Z" fill="#C00000" transform="matrix(1 0 0 1 2639 1316)"/></g></g></g><g><g><g><path d="M3131.62 1346.77 3119.23 1334.37 3080 1373.6 3040.77 1334.37 3028.37 1346.77 3067.6 1386 3028.37 1425.23 3040.77 1437.63 3080 1398.4 3119.23 1437.63 3131.62 1425.23 3092.4 1386Z" fill="#C00000"/></g></g></g><g><g><g><path d="M121.625 30.7708 109.229 18.375 70 57.6041 30.7708 18.375 18.375 30.7708 57.6041 70 18.375 109.229 30.7708 121.625 70 82.3958 109.229 121.625 121.625 109.229 82.3958 70Z" fill="#C00000" transform="matrix(1 0 0 1 2826 1316)"/></g></g></g><g><g><g><path d="M3140.56 500.042 3065.9 570.625 3030.02 533.875 3017.62 545.688 3065.31 594.688 3077.85 583.021 3152.38 512.292Z" fill="#13501B"/></g></g></g><g><g><g><path d="M3149.56 830.042 3074.9 900.625 3039.02 863.875 3026.62 875.688 3074.31 924.688 3086.85 913.021 3161.38 842.292Z" fill="#13501B"/></g></g></g><g><g><g><path d="M3140.56 995.042 3065.9 1065.62 3030.02 1028.88 3017.62 1040.69 3065.31 1089.69 3077.85 1078.02 3152.38 1007.29Z" fill="#13501B"/></g></g></g><g><g><g><path d="M3140.56 1176.04 3065.9 1246.62 3030.02 1209.87 3017.62 1221.69 3065.31 1270.69 3077.85 1259.02 3152.38 1188.29Z" fill="#13501B"/></g></g></g><g><g><g><path d="M125.562 23.0417 50.8958 93.6249 15.0208 56.875 2.625 68.6874 50.3125 117.687 62.8541 106.021 137.375 35.2916Z" fill="#13501B" transform="matrix(1 0 0 1 2826 644)"/></g></g></g><g><g><g><path d="M2951.56 500.042 2876.9 570.625 2841.02 533.875 2828.62 545.688 2876.31 594.688 2888.85 583.021 2963.38 512.292Z" fill="#13501B"/></g></g></g><g><g><g><path d="M2951.56 830.042 2876.9 900.625 2841.02 863.875 2828.62 875.688 2876.31 924.688 2888.85 913.021 2963.38 842.292Z" fill="#13501B"/></g></g></g><g><g><g><path d="M2951.56 995.042 2876.9 1065.62 2841.02 1028.88 2828.62 1040.69 2876.31 1089.69 2888.85 1078.02 2963.38 1007.29Z" fill="#13501B"/></g></g></g><path d="M2844.5 1223.5C2844.5 1194.23 2868.01 1170.5 2897 1170.5 2925.99 1170.5 2949.5 1194.23 2949.5 1223.5 2949.5 1252.77 2925.99 1276.5 2897 1276.5 2868.01 1276.5 2844.5 1252.77 2844.5 1223.5ZM2861.77 1223.5C2861.77 1243.23 2877.54 1259.23 2897 1259.23 2916.46 1259.23 2932.23 1243.23 2932.23 1223.5 2932.23 1203.77 2916.46 1187.77 2897 1187.77 2877.54 1187.77 2861.77 1203.77 2861.77 1223.5Z" stroke="#000000" stroke-width="6.875" stroke-miterlimit="8" fill="#FFC000" fill-rule="evenodd"/><path d="M1534.5 547.5C1534.5 518.229 1558.23 494.5 1587.5 494.5 1616.77 494.5 1640.5 518.229 1640.5 547.5 1640.5 576.771 1616.77 600.5 1587.5 600.5 1558.23 600.5 1534.5 576.771 1534.5 547.5ZM1551.93 547.5C1551.93 567.144 1567.86 583.068 1587.5 583.068 1607.14 583.068 1623.07 567.144 1623.07 547.5 1623.07 527.856 1607.14 511.932 1587.5 511.932 1567.86 511.932 1551.93 527.856 1551.93 547.5Z" stroke="#000000" stroke-width="6.875" stroke-miterlimit="8" fill="#FFC000" fill-rule="evenodd"/><path d="M1716.5 547.5C1716.5 518.229 1740 494.5 1769 494.5 1797.99 494.5 1821.5 518.229 1821.5 547.5 1821.5 576.771 1797.99 600.5 1769 600.5 1740 600.5 1716.5 576.771 1716.5 547.5ZM1733.77 547.5C1733.77 567.235 1749.54 583.233 1769 583.233 1788.46 583.233 1804.23 567.235 1804.23 547.5 1804.23 527.765 1788.46 511.767 1769 511.767 1749.54 511.767 1733.77 527.765 1733.77 547.5Z" stroke="#000000" stroke-width="6.875" stroke-miterlimit="8" fill="#FFC000" fill-rule="evenodd"/><g><g><g><path d="M1638.62 1183.77 1626.23 1171.37 1587 1210.6 1547.77 1171.37 1535.38 1183.77 1574.6 1223 1535.38 1262.23 1547.77 1274.62 1587 1235.4 1626.23 1274.62 1638.62 1262.23 1599.4 1223Z" fill="#C00000"/></g></g></g><g><g><g><path d="M1819.62 1183.77 1807.23 1171.37 1768 1210.6 1728.77 1171.37 1716.38 1183.77 1755.6 1223 1716.38 1262.23 1728.77 1274.62 1768 1235.4 1807.23 1274.62 1819.62 1262.23 1780.4 1223Z" fill="#C00000"/></g></g></g><g><g><g><path d="M2012.62 1183.77 2000.23 1171.37 1961 1210.6 1921.77 1171.37 1909.38 1183.77 1948.6 1223 1909.38 1262.23 1921.77 1274.62 1961 1235.4 2000.23 1274.62 2012.62 1262.23 1973.4 1223Z" fill="#C00000"/></g></g></g><g><g><g><path d="M121.625 30.7708 109.229 18.375 70 57.6041 30.7708 18.375 18.375 30.7708 57.6041 70 18.375 109.229 30.7708 121.625 70 82.3958 109.229 121.625 121.625 109.229 82.3958 70Z" fill="#C00000" transform="matrix(1 0 0 1 2076 1153)"/></g></g></g><g><g><g><path d="M2388.62 1183.77 2376.23 1171.37 2337 1210.6 2297.77 1171.37 2285.38 1183.77 2324.6 1223 2285.38 1262.23 2297.77 1274.62 2337 1235.4 2376.23 1274.62 2388.62 1262.23 2349.4 1223Z" fill="#C00000"/></g></g></g><g><g><g><path d="M2568.63 1183.77 2556.23 1171.37 2517 1210.6 2477.77 1171.37 2465.38 1183.77 2504.6 1223 2465.38 1262.23 2477.77 1274.62 2517 1235.4 2556.23 1274.62 2568.63 1262.23 2529.4 1223Z" fill="#C00000"/></g></g></g><g><g><g><path d="M2760.62 1183.77 2748.23 1171.37 2709 1210.6 2669.77 1171.37 2657.38 1183.77 2696.6 1223 2657.38 1262.23 2669.77 1274.62 2709 1235.4 2748.23 1274.62 2760.62 1262.23 2721.4 1223Z" fill="#C00000"/></g></g></g><path d="M2656.5 1042.5C2656.5 1013.23 2680.01 989.5 2709 989.5 2737.99 989.5 2761.5 1013.23 2761.5 1042.5 2761.5 1071.77 2737.99 1095.5 2709 1095.5 2680.01 1095.5 2656.5 1071.77 2656.5 1042.5ZM2673.77 1042.5C2673.77 1062.23 2689.54 1078.23 2709 1078.23 2728.46 1078.23 2744.23 1062.23 2744.23 1042.5 2744.23 1022.77 2728.46 1006.77 2709 1006.77 2689.54 1006.77 2673.77 1022.77 2673.77 1042.5Z" stroke="#000000" stroke-width="6.875" stroke-miterlimit="8" fill="#FFC000" fill-rule="evenodd"/><path d="M2465.5 1042.5C2465.5 1013.23 2489 989.5 2518 989.5 2546.99 989.5 2570.5 1013.23 2570.5 1042.5 2570.5 1071.77 2546.99 1095.5 2518 1095.5 2489 1095.5 2465.5 1071.77 2465.5 1042.5ZM2482.77 1042.5C2482.77 1062.23 2498.54 1078.23 2518 1078.23 2537.46 1078.23 2553.23 1062.23 2553.23 1042.5 2553.23 1022.77 2537.46 1006.77 2518 1006.77 2498.54 1006.77 2482.77 1022.77 2482.77 1042.5Z" stroke="#000000" stroke-width="6.875" stroke-miterlimit="8" fill="#FFC000" fill-rule="evenodd"/><path d="M2285.5 1042.5C2285.5 1013.23 2309.01 989.5 2338 989.5 2366.99 989.5 2390.5 1013.23 2390.5 1042.5 2390.5 1071.77 2366.99 1095.5 2338 1095.5 2309.01 1095.5 2285.5 1071.77 2285.5 1042.5ZM2302.77 1042.5C2302.77 1062.23 2318.54 1078.23 2338 1078.23 2357.46 1078.23 2373.23 1062.23 2373.23 1042.5 2373.23 1022.77 2357.46 1006.77 2338 1006.77 2318.54 1006.77 2302.77 1022.77 2302.77 1042.5Z" stroke="#000000" stroke-width="6.875" stroke-miterlimit="8" fill="#FFC000" fill-rule="evenodd"/><path d="M2093.5 1042.5C2093.5 1013.23 2117.01 989.5 2146 989.5 2174.99 989.5 2198.5 1013.23 2198.5 1042.5 2198.5 1071.77 2174.99 1095.5 2146 1095.5 2117.01 1095.5 2093.5 1071.77 2093.5 1042.5ZM2110.77 1042.5C2110.77 1062.23 2126.54 1078.23 2146 1078.23 2165.46 1078.23 2181.23 1062.23 2181.23 1042.5 2181.23 1022.77 2165.46 1006.77 2146 1006.77 2126.54 1006.77 2110.77 1022.77 2110.77 1042.5Z" stroke="#000000" stroke-width="6.875" stroke-miterlimit="8" fill="#FFC000" fill-rule="evenodd"/><path d="M1908.5 1042.5C1908.5 1013.23 1932.01 989.5 1961 989.5 1989.99 989.5 2013.5 1013.23 2013.5 1042.5 2013.5 1071.77 1989.99 1095.5 1961 1095.5 1932.01 1095.5 1908.5 1071.77 1908.5 1042.5ZM1925.77 1042.5C1925.77 1062.23 1941.54 1078.23 1961 1078.23 1980.46 1078.23 1996.23 1062.23 1996.23 1042.5 1996.23 1022.77 1980.46 1006.77 1961 1006.77 1941.54 1006.77 1925.77 1022.77 1925.77 1042.5Z" stroke="#000000" stroke-width="6.875" stroke-miterlimit="8" fill="#FFC000" fill-rule="evenodd"/><path d="M1716.5 1042.5C1716.5 1013.23 1740 989.5 1769 989.5 1797.99 989.5 1821.5 1013.23 1821.5 1042.5 1821.5 1071.77 1797.99 1095.5 1769 1095.5 1740 1095.5 1716.5 1071.77 1716.5 1042.5ZM1733.77 1042.5C1733.77 1062.23 1749.54 1078.23 1769 1078.23 1788.46 1078.23 1804.23 1062.23 1804.23 1042.5 1804.23 1022.77 1788.46 1006.77 1769 1006.77 1749.54 1006.77 1733.77 1022.77 1733.77 1042.5Z" stroke="#000000" stroke-width="6.875" stroke-miterlimit="8" fill="#FFC000" fill-rule="evenodd"/><path d="M1534.5 1042.5C1534.5 1013.23 1558.23 989.5 1587.5 989.5 1616.77 989.5 1640.5 1013.23 1640.5 1042.5 1640.5 1071.77 1616.77 1095.5 1587.5 1095.5 1558.23 1095.5 1534.5 1071.77 1534.5 1042.5ZM1551.93 1042.5C1551.93 1062.14 1567.86 1078.07 1587.5 1078.07 1607.14 1078.07 1623.07 1062.14 1623.07 1042.5 1623.07 1022.86 1607.14 1006.93 1587.5 1006.93 1567.86 1006.93 1551.93 1022.86 1551.93 1042.5Z" stroke="#000000" stroke-width="6.875" stroke-miterlimit="8" fill="#FFC000" fill-rule="evenodd"/><g><g><g><path d="M125.562 23.0417 50.8958 93.6249 15.0208 56.875 2.625 68.6874 50.3125 117.687 62.8541 106.021 137.375 35.2916Z" fill="#13501B" transform="matrix(1 0 0 1 2639 644)"/></g></g></g><g><g><g><path d="M2764.56 500.042 2689.9 570.625 2654.02 533.875 2641.62 545.688 2689.31 594.688 2701.85 583.021 2776.38 512.292Z" fill="#13501B"/></g></g></g><g><g><g><path d="M2764.56 830.042 2689.9 900.625 2654.02 863.875 2641.62 875.688 2689.31 924.688 2701.85 913.021 2776.38 842.292Z" fill="#13501B"/></g></g></g><g><g><g><path d="M125.562 23.0417 50.8958 93.6249 15.0208 56.875 2.625 68.6874 50.3125 117.687 62.8541 106.021 137.375 35.2916Z" fill="#13501B" transform="matrix(1 0 0 1 2447 644)"/></g></g></g><g><g><g><path d="M2572.56 500.042 2497.9 570.625 2462.02 533.875 2449.63 545.688 2497.31 594.688 2509.85 583.021 2584.38 512.292Z" fill="#13501B"/></g></g></g><g><g><g><path d="M2572.56 830.042 2497.9 900.625 2462.02 863.875 2449.63 875.688 2497.31 924.688 2509.85 913.021 2584.38 842.292Z" fill="#13501B"/></g></g></g><g><g><g><path d="M125.562 23.0417 50.8958 93.6249 15.0208 56.875 2.625 68.6874 50.3125 117.687 62.8541 106.021 137.375 35.2916Z" fill="#13501B" transform="matrix(1 0 0 1 2267 644)"/></g></g></g><g><g><g><path d="M2392.56 500.042 2317.9 570.625 2282.02 533.875 2269.62 545.688 2317.31 594.688 2329.85 583.021 2404.38 512.292Z" fill="#13501B"/></g></g></g><g><g><g><path d="M2392.56 830.042 2317.9 900.625 2282.02 863.875 2269.62 875.688 2317.31 924.688 2329.85 913.021 2404.38 842.292Z" fill="#13501B"/></g></g></g><g><g><g><path d="M2201.56 667.042 2126.9 737.625 2091.02 700.875 2078.62 712.687 2126.31 761.688 2138.85 750.021 2213.38 679.292Z" fill="#13501B"/></g></g></g><g><g><g><path d="M125.562 23.0417 50.8958 93.6249 15.0208 56.875 2.625 68.6874 50.3125 117.687 62.8541 106.021 137.375 35.2916Z" fill="#13501B" transform="matrix(1 0 0 1 2076 477)"/></g></g></g><g><g><g><path d="M125.562 23.0417 50.8958 93.6249 15.0208 56.875 2.625 68.6874 50.3125 117.687 62.8541 106.021 137.375 35.2916Z" fill="#13501B" transform="matrix(1 0 0 1 2076 807)"/></g></g></g><path d="M1908.5 877.5C1908.5 848.229 1932.01 824.5 1961 824.5 1989.99 824.5 2013.5 848.229 2013.5 877.5 2013.5 906.771 1989.99 930.5 1961 930.5 1932.01 930.5 1908.5 906.771 1908.5 877.5ZM1925.77 877.5C1925.77 897.235 1941.54 913.233 1961 913.233 1980.46 913.233 1996.23 897.235 1996.23 877.5 1996.23 857.765 1980.46 841.767 1961 841.767 1941.54 841.767 1925.77 857.765 1925.77 877.5Z" stroke="#000000" stroke-width="6.875" stroke-miterlimit="8" fill="#FFC000" fill-rule="evenodd"/><path d="M1908.5 714.5C1908.5 685.229 1932.01 661.5 1961 661.5 1990 661.5 2013.5 685.229 2013.5 714.5 2013.5 743.771 1990 767.5 1961 767.5 1932.01 767.5 1908.5 743.771 1908.5 714.5ZM1925.77 714.5C1925.77 734.235 1941.54 750.233 1961 750.233 1980.46 750.233 1996.23 734.235 1996.23 714.5 1996.23 694.765 1980.46 678.767 1961 678.767 1941.54 678.767 1925.77 694.765 1925.77 714.5Z" stroke="#000000" stroke-width="6.875" stroke-miterlimit="8" fill="#FFC000" fill-rule="evenodd"/><path d="M1908.5 547.5C1908.5 518.229 1932.01 494.5 1961 494.5 1989.99 494.5 2013.5 518.229 2013.5 547.5 2013.5 576.771 1989.99 600.5 1961 600.5 1932.01 600.5 1908.5 576.771 1908.5 547.5ZM1925.77 547.5C1925.77 567.235 1941.54 583.233 1961 583.233 1980.46 583.233 1996.23 567.235 1996.23 547.5 1996.23 527.765 1980.46 511.767 1961 511.767 1941.54 511.767 1925.77 527.765 1925.77 547.5Z" stroke="#000000" stroke-width="6.875" stroke-miterlimit="8" fill="#FFC000" fill-rule="evenodd"/><g><g><g><path d="M125.562 23.0417 50.8958 93.6249 15.0208 56.875 2.625 68.6874 50.3125 117.687 62.8541 106.021 137.375 35.2916Z" fill="#13501B" transform="matrix(1 0 0 1 1698 644)"/></g></g></g><g><g><g><path d="M1642.56 830.042 1567.9 900.625 1532.02 863.875 1519.62 875.688 1567.31 924.688 1579.85 913.021 1654.37 842.292Z" fill="#13501B"/></g></g></g><g><g><g><path d="M121.625 30.7708 109.229 18.375 70 57.6041 30.7708 18.375 18.375 30.7708 57.6041 70 18.375 109.229 30.7708 121.625 70 82.3958 109.229 121.625 121.625 109.229 82.3958 70Z" fill="#C00000" transform="matrix(1 0 0 1 1517 1316)"/></g></g></g><g><g><g><path d="M121.625 30.7708 109.229 18.375 70 57.6041 30.7708 18.375 18.375 30.7708 57.6041 70 18.375 109.229 30.7708 121.625 70 82.3958 109.229 121.625 121.625 109.229 82.3958 70Z" fill="#C00000" transform="matrix(1 0 0 1 1698 1316)"/></g></g></g><path d="M0 0 0.000360892 1007.44" stroke="#000000" stroke-width="6.875" stroke-miterlimit="8" fill="none" fill-rule="evenodd" transform="matrix(1 0 0 -1 1489.5 1472.94)"/><path d="M0 0 0.000360892 1007.44" stroke="#000000" stroke-width="6.875" stroke-miterlimit="8" fill="none" fill-rule="evenodd" transform="matrix(1 0 0 -1 1677.5 1472.94)"/><path d="M0 0 0.000360892 1007.44" stroke="#000000" stroke-width="6.875" stroke-miterlimit="8" fill="none" fill-rule="evenodd" transform="matrix(1 0 0 -1 1865.5 1472.94)"/><path d="M0 0 0.000360892 1007.44" stroke="#000000" stroke-width="6.875" stroke-miterlimit="8" fill="none" fill-rule="evenodd" transform="matrix(1 0 0 -1 2053.5 1472.94)"/><path d="M0 0 0.000360892 1007.44" stroke="#000000" stroke-width="6.875" stroke-miterlimit="8" fill="none" fill-rule="evenodd" transform="matrix(1 0 0 -1 2240.5 1472.94)"/><path d="M0 0 0.000360892 1007.44" stroke="#000000" stroke-width="6.875" stroke-miterlimit="8" fill="none" fill-rule="evenodd" transform="matrix(1 0 0 -1 2428.5 1472.94)"/><path d="M0 0 0.000360892 1007.44" stroke="#000000" stroke-width="6.875" stroke-miterlimit="8" fill="none" fill-rule="evenodd" transform="matrix(1 0 0 -1 2616.5 1472.94)"/><path d="M0 0 0.000360892 1007.44" stroke="#000000" stroke-width="6.875" stroke-miterlimit="8" fill="none" fill-rule="evenodd" transform="matrix(1 0 0 -1 2803.5 1472.94)"/><path d="M0 0 0.000360892 1007.44" stroke="#000000" stroke-width="6.875" stroke-miterlimit="8" fill="none" fill-rule="evenodd" transform="matrix(1 0 0 -1 2991.5 1472.94)"/><path d="M0 0 0.000360892 1007.44" stroke="#000000" stroke-width="6.875" stroke-miterlimit="8" fill="none" fill-rule="evenodd" transform="matrix(1 0 0 -1 3179.5 1472.94)"/><path d="M0 0 1690.44 0.000360892" stroke="#000000" stroke-width="6.875" stroke-miterlimit="8" fill="none" fill-rule="evenodd" transform="matrix(-1 0 0 1 3177.94 1471.5)"/><path d="M0 0 1690.44 0.000360892" stroke="#000000" stroke-width="6.875" stroke-miterlimit="8" fill="none" fill-rule="evenodd" transform="matrix(-1 0 0 1 3180.94 466.5)"/><path d="M0 0 1690.44 0.000360892" stroke="#000000" stroke-width="6.875" stroke-miterlimit="8" fill="none" fill-rule="evenodd" transform="matrix(-1 0 0 1 3177.94 1304.5)"/><path d="M0 0 1690.44 0.000360892" stroke="#000000" stroke-width="6.875" stroke-miterlimit="8" fill="none" fill-rule="evenodd" transform="matrix(-1 0 0 1 3180.94 1136.5)"/><path d="M0 0 1690.44 0.000360892" stroke="#000000" stroke-width="6.875" stroke-miterlimit="8" fill="none" fill-rule="evenodd" transform="matrix(-1 0 0 1 3177.94 969.5)"/><path d="M0 0 1690.44 0.000360892" stroke="#000000" stroke-width="6.875" stroke-miterlimit="8" fill="none" fill-rule="evenodd" transform="matrix(-1 0 0 1 3177.94 801.5)"/><path d="M0 0 1690.44 0.000360892" stroke="#000000" stroke-width="6.875" stroke-miterlimit="8" fill="none" fill-rule="evenodd" transform="matrix(-1 0 0 1 3177.94 634.5)"/><g><g><g><path d="M1238.56 1655.04 1163.9 1725.62 1128.02 1688.88 1115.63 1700.69 1163.31 1749.69 1175.85 1738.02 1250.38 1667.29Z" fill="#13501B"/></g></g></g><g><g><g><path d="M121.625 30.7708 109.229 18.375 70 57.6041 30.7708 18.375 18.375 30.7708 57.6041 70 18.375 109.229 30.7708 121.625 70 82.3958 109.229 121.625 121.625 109.229 82.3958 70Z" fill="#C00000" transform="matrix(1 0 0 1 1109 1933)"/></g></g></g><path d="M1131.5 1851.5C1131.5 1822.23 1155.01 1798.5 1184 1798.5 1212.99 1798.5 1236.5 1822.23 1236.5 1851.5 1236.5 1880.77 1212.99 1904.5 1184 1904.5 1155.01 1904.5 1131.5 1880.77 1131.5 1851.5ZM1148.77 1851.5C1148.77 1871.23 1164.54 1887.23 1184 1887.23 1203.46 1887.23 1219.23 1871.23 1219.23 1851.5 1219.23 1831.77 1203.46 1815.77 1184 1815.77 1164.54 1815.77 1148.77 1831.77 1148.77 1851.5Z" stroke="#000000" stroke-width="6.875" stroke-miterlimit="8" fill="#FFC000" fill-rule="evenodd"/><text fill="#C00000" font-family="Aptos,Aptos_MSFontService,sans-serif" font-weight="700" font-size="83" transform="matrix(1 0 0 1 1286.2 2020)">18 where experimental arm  </text><text fill="#C00000" font-family="Aptos,Aptos_MSFontService,sans-serif" font-weight="700" font-size="83" transform="matrix(1 0 0 1 2335.8 2020)">looses</text><text fill="#C00000" font-family="Aptos,Aptos_MSFontService,sans-serif" font-weight="700" font-size="83" transform="matrix(1 0 0 1 2602.78 2020)">(worse outcome)</text><text fill="#C04F15" font-family="Aptos,Aptos_MSFontService,sans-serif" font-weight="700" font-size="83" transform="matrix(1 0 0 1 1286.19 1879)">13 where experimental arm is tied (no observed difference)</text><text fill="#13501B" font-family="Aptos,Aptos_MSFontService,sans-serif" font-weight="700" font-size="83" transform="matrix(1 0 0 1 1286.19 1738)">23 where experimental arm   wins (better outcome)</text><text font-family="Aptos,Aptos_MSFontService,sans-serif" font-weight="700" font-size="83" transform="matrix(1 0 0 1 1133.35 1621)">Of 54 possible pairs:</text><path d="M1276.24 2180.25 1278.71 2180.25 1278.71 2209.23C1278.71 2211.55 1278.82 2213.17 1279.04 2214.07 1279.25 2214.98 1279.67 2215.67 1280.27 2216.14 1280.88 2216.61 1281.87 2217.03 1283.25 2217.38L1283.25 2219.36 1267.37 2219.36 1267.37 2217.38C1268.42 2217.05 1269.17 2216.77 1269.61 2216.53 1270.06 2216.28 1270.44 2215.95 1270.75 2215.51 1271.06 2215.08 1271.3 2214.42 1271.48 2213.53 1271.65 2212.64 1271.74 2211.24 1271.74 2209.35L1271.74 2191.68C1271.74 2189.95 1271.72 2188.56 1271.66 2187.51 1271.61 2186.46 1271.42 2185.61 1271.09 2184.98 1270.77 2184.34 1270.28 2183.87 1269.61 2183.56 1268.95 2183.25 1268.01 2182.98 1266.8 2182.77L1266.8 2180.62ZM1314.44 2179.97C1315.9 2179.97 1317.2 2180.14 1318.35 2180.48 1319.5 2180.81 1320.51 2181.34 1321.39 2182.04 1322.27 2182.74 1322.99 2183.61 1323.56 2184.65 1324.12 2185.69 1324.55 2186.94 1324.83 2188.4 1325.12 2189.86 1325.26 2191.71 1325.26 2193.95L1325.26 2209.23C1325.26 2211.1 1325.31 2212.45 1325.42 2213.28 1325.53 2214.12 1325.72 2214.77 1325.99 2215.23 1326.26 2215.69 1326.65 2216.07 1327.16 2216.38 1327.68 2216.7 1328.57 2217.03 1329.84 2217.38L1329.84 2219.36 1313.87 2219.36 1313.87 2217.38C1314.92 2217.05 1315.68 2216.77 1316.14 2216.53 1316.6 2216.28 1316.99 2215.95 1317.3 2215.51 1317.61 2215.08 1317.85 2214.41 1318.03 2213.51 1318.2 2212.6 1318.29 2211.23 1318.29 2209.39L1318.29 2198.78C1318.29 2196.88 1318.23 2195.17 1318.13 2193.63 1318.02 2192.09 1317.84 2190.83 1317.58 2189.84 1317.32 2188.85 1317.01 2188.08 1316.65 2187.53 1316.28 2186.98 1315.85 2186.5 1315.35 2186.11 1314.85 2185.72 1314.28 2185.41 1313.63 2185.18 1312.98 2184.95 1312.13 2184.83 1311.07 2184.83 1310.02 2184.83 1309.02 2185.04 1308.08 2185.46 1307.13 2185.88 1306.09 2186.6 1304.96 2187.63 1303.82 2188.66 1303 2189.67 1302.48 2190.67 1301.97 2191.67 1301.71 2192.82 1301.71 2194.11L1301.71 2209.23C1301.71 2211.55 1301.82 2213.17 1302.04 2214.07 1302.25 2214.98 1302.67 2215.67 1303.27 2216.14 1303.88 2216.61 1304.87 2217.03 1306.25 2217.38L1306.25 2219.36 1290.37 2219.36 1290.37 2217.38C1291.42 2217.05 1292.17 2216.77 1292.61 2216.53 1293.06 2216.28 1293.44 2215.95 1293.75 2215.51 1294.06 2215.08 1294.3 2214.42 1294.48 2213.53 1294.65 2212.64 1294.74 2211.24 1294.74 2209.35L1294.74 2191.68C1294.74 2189.95 1294.72 2188.56 1294.66 2187.51 1294.61 2186.46 1294.42 2185.61 1294.09 2184.98 1293.77 2184.34 1293.28 2183.87 1292.61 2183.56 1291.95 2183.25 1291.01 2182.98 1289.8 2182.77L1289.8 2180.62 1299.28 2180.25 1301.75 2180.25 1301.31 2186.86 1301.88 2187.02C1303.87 2185 1305.49 2183.55 1306.72 2182.69 1307.95 2181.82 1309.19 2181.15 1310.45 2180.68 1311.7 2180.21 1313.03 2179.97 1314.44 2179.97ZM1271.5 2164.73 1278.96 2164.73 1278.96 2172.59 1271.5 2172.59ZM1188.33 2164.04 1205.67 2164.04 1205.67 2166.03C1204 2166.35 1202.83 2166.84 1202.17 2167.49 1201.5 2168.14 1201.17 2169.04 1201.17 2170.2 1201.17 2171.15 1201.29 2172.27 1201.54 2173.57 1201.78 2174.86 1202.12 2176.34 1202.55 2177.98L1210.7 2210 1223.75 2164.04 1230.56 2164.04 1241.13 2210.04 1250.7 2179.12C1251.86 2175.36 1252.44 2172.69 1252.44 2171.1 1252.44 2169.45 1252.1 2168.26 1251.41 2167.53 1250.72 2166.8 1249.58 2166.3 1247.98 2166.03L1247.98 2164.04 1263.95 2164.04 1263.95 2166.03C1263.14 2166.3 1262.49 2166.6 1262 2166.94 1261.52 2167.28 1261.05 2167.74 1260.61 2168.32 1260.16 2168.9 1259.67 2169.8 1259.15 2171.01 1258.62 2172.23 1258.01 2173.86 1257.3 2175.92L1242.55 2219.65 1236.76 2219.65 1225.57 2174.38 1212.6 2219.65 1206.04 2219.65 1194.24 2175.63C1193.76 2173.8 1193.31 2172.3 1192.91 2171.14 1192.5 2169.97 1192.09 2169.06 1191.69 2168.4 1191.28 2167.74 1190.85 2167.24 1190.37 2166.9 1189.9 2166.56 1189.22 2166.27 1188.33 2166.03Z" fill-rule="evenodd"/><text fill="#000000" fill-opacity="0" font-family="Arial,Arial_MSFontService,sans-serif" font-size="55.6035" x="1188.33" y="2212.7">Win</text><path d="M1428.38 2200.88C1422.9 2200.94 1418.79 2201.67 1416.06 2203.07 1413.33 2204.48 1411.97 2206.6 1411.97 2209.43 1411.97 2210.97 1412.28 2212.19 1412.9 2213.08 1413.52 2213.97 1414.31 2214.59 1415.25 2214.93 1416.2 2215.26 1417.32 2215.43 1418.62 2215.43 1420.45 2215.43 1422.12 2214.99 1423.62 2214.09 1425.12 2213.2 1426.29 2212.07 1427.13 2210.69 1427.96 2209.31 1428.38 2207.95 1428.38 2206.6ZM1482.52 2180.25 1484.99 2180.25 1484.99 2209.23C1484.99 2211.55 1485.1 2213.17 1485.32 2214.07 1485.53 2214.98 1485.95 2215.67 1486.55 2216.14 1487.16 2216.61 1488.16 2217.03 1489.53 2217.38L1489.53 2219.36 1473.65 2219.36 1473.65 2217.38C1474.7 2217.05 1475.45 2216.77 1475.9 2216.53 1476.34 2216.28 1476.72 2215.95 1477.03 2215.51 1477.34 2215.08 1477.58 2214.42 1477.76 2213.53 1477.94 2212.64 1478.02 2211.24 1478.02 2209.35L1478.02 2191.68C1478.02 2189.95 1478 2188.56 1477.94 2187.51 1477.89 2186.46 1477.7 2185.61 1477.38 2184.98 1477.05 2184.34 1476.56 2183.87 1475.9 2183.56 1475.23 2183.25 1474.3 2182.98 1473.08 2182.77L1473.08 2180.62ZM1424.01 2179.93C1426.68 2179.93 1428.83 2180.36 1430.45 2181.21 1432.07 2182.06 1433.29 2183.36 1434.1 2185.12 1434.91 2186.87 1435.31 2189.52 1435.31 2193.06L1435.31 2207.16C1435.31 2209.16 1435.33 2210.58 1435.35 2211.4 1435.38 2212.22 1435.46 2212.99 1435.6 2213.69 1435.73 2214.39 1435.93 2214.95 1436.2 2215.37 1436.47 2215.79 1436.87 2216.15 1437.4 2216.45 1437.93 2216.74 1438.78 2217.05 1439.97 2217.38L1439.97 2219.36 1428.87 2219.36 1429.07 2213.57 1428.46 2213.41C1426.11 2215.81 1423.9 2217.51 1421.84 2218.51 1419.77 2219.51 1417.58 2220.01 1415.25 2220.01 1413.2 2220.01 1411.39 2219.61 1409.82 2218.82 1408.25 2218.02 1407.05 2216.9 1406.21 2215.45 1405.38 2214.01 1404.96 2212.34 1404.96 2210.45 1404.96 2206.5 1406.91 2203.46 1410.81 2201.31 1414.72 2199.16 1420.57 2197.91 1428.38 2197.56L1428.38 2194.93C1428.38 2192.12 1428.11 2189.9 1427.57 2188.28 1427.03 2186.66 1426.18 2185.47 1425.02 2184.71 1423.86 2183.96 1422.3 2183.58 1420.36 2183.58 1418.25 2183.58 1416.56 2184.13 1415.27 2185.24 1413.99 2186.35 1413.02 2188.01 1412.37 2190.22L1407.07 2190.22 1407.07 2184.96C1409.66 2183.6 1411.82 2182.61 1413.55 2181.98 1415.28 2181.34 1417.01 2180.84 1418.74 2180.48 1420.47 2180.11 1422.22 2179.93 1424.01 2179.93ZM1450.43 2170.61 1456.18 2170.61 1456.18 2180.62 1469.27 2180.62 1469.27 2184.71 1456.18 2184.71 1456.18 2202.75C1456.18 2205.37 1456.29 2207.46 1456.51 2209.01 1456.72 2210.56 1457.13 2211.78 1457.72 2212.66 1458.32 2213.53 1458.99 2214.16 1459.75 2214.54 1460.51 2214.92 1461.48 2215.11 1462.67 2215.11 1463.75 2215.11 1464.76 2214.89 1465.71 2214.44 1466.65 2213.99 1467.59 2213.35 1468.5 2212.51L1470.33 2214.7C1468.41 2216.57 1466.59 2217.92 1464.88 2218.76 1463.16 2219.59 1461.38 2220.01 1459.55 2220.01 1456.06 2220.01 1453.47 2218.98 1451.77 2216.91 1450.06 2214.84 1449.21 2211.61 1449.21 2207.21L1449.21 2184.71 1443.21 2184.71 1443.21 2182.65C1444.57 2182.43 1445.66 2182.05 1446.5 2181.51 1447.34 2180.97 1447.99 2180.27 1448.46 2179.42 1448.94 2178.57 1449.31 2177.51 1449.58 2176.22 1449.85 2174.94 1450.13 2173.07 1450.43 2170.61ZM1373.9 2167.61C1371.47 2167.61 1369.49 2167.66 1367.98 2167.77L1367.98 2191.85 1372.56 2191.85C1374.91 2191.85 1376.82 2191.68 1378.27 2191.34 1379.73 2191 1381.08 2190.36 1382.33 2189.41 1383.57 2188.47 1384.56 2187.15 1385.31 2185.46 1386.05 2183.77 1386.42 2181.7 1386.42 2179.24 1386.42 2176.67 1385.98 2174.54 1385.1 2172.84 1384.22 2171.14 1382.89 2169.84 1381.11 2168.95 1379.33 2168.06 1376.92 2167.61 1373.9 2167.61ZM1477.78 2164.73 1485.24 2164.73 1485.24 2172.59 1477.78 2172.59ZM1355.62 2164.04 1375.68 2164.04C1382 2164.04 1386.73 2165.19 1389.86 2167.49 1393 2169.78 1394.57 2173.35 1394.57 2178.19 1394.57 2181.89 1393.55 2185.04 1391.51 2187.63 1389.47 2190.22 1386.41 2192.25 1382.33 2193.71L1382.33 2194.03C1383.97 2194.71 1385.39 2195.68 1386.56 2196.93 1387.74 2198.19 1389.04 2200.14 1390.47 2202.79L1394.12 2209.43C1395.17 2211.38 1396.08 2212.87 1396.84 2213.89 1397.59 2214.92 1398.36 2215.7 1399.15 2216.24 1399.93 2216.78 1400.97 2217.16 1402.27 2217.38L1402.27 2219.36 1391.04 2219.36C1390.01 2217.93 1389.04 2216.39 1388.12 2214.74 1387.2 2213.09 1386.3 2211.42 1385.41 2209.72L1381.84 2202.95C1380.76 2200.9 1379.87 2199.38 1379.19 2198.41 1378.5 2197.44 1377.86 2196.76 1377.28 2196.36 1376.7 2195.97 1376.08 2195.7 1375.42 2195.55 1374.75 2195.4 1373.76 2195.33 1372.44 2195.33L1367.98 2195.33 1367.98 2209.11C1367.98 2211.06 1368.05 2212.47 1368.2 2213.34 1368.35 2214.22 1368.57 2214.89 1368.87 2215.33 1369.17 2215.78 1369.57 2216.14 1370.09 2216.43 1370.6 2216.71 1371.48 2217.03 1372.72 2217.38L1372.72 2219.36 1355.62 2219.36 1355.62 2217.38C1357.29 2216.95 1358.42 2216.47 1358.98 2215.94 1359.55 2215.41 1359.92 2214.66 1360.1 2213.69 1360.27 2212.72 1360.36 2211.23 1360.36 2209.23L1360.36 2174.18C1360.36 2172.31 1360.29 2170.95 1360.16 2170.1 1360.02 2169.25 1359.8 2168.59 1359.49 2168.12 1359.18 2167.64 1358.77 2167.27 1358.25 2166.98 1357.74 2166.7 1356.86 2166.38 1355.62 2166.03Z" fill-rule="evenodd"/><text fill="#000000" fill-opacity="0" font-family="Arial,Arial_MSFontService,sans-serif" font-size="55.9683" x="1355.62" y="2213.02">Rati</text><path d="M1514.85 2183.13C1511.58 2183.13 1509.07 2184.55 1507.33 2187.39 1505.59 2190.22 1504.71 2194.26 1504.71 2199.5 1504.71 2205.07 1505.6 2209.35 1507.37 2212.33 1509.14 2215.32 1511.67 2216.81 1514.97 2216.81 1516.78 2216.81 1518.32 2216.37 1519.59 2215.49 1520.86 2214.61 1521.89 2213.43 1522.69 2211.95 1523.48 2210.46 1524.06 2208.74 1524.41 2206.78 1524.76 2204.82 1524.94 2202.77 1524.94 2200.64 1524.94 2196.67 1524.5 2193.37 1523.62 2190.75 1522.74 2188.13 1521.55 2186.21 1520.03 2184.98 1518.52 2183.75 1516.79 2183.13 1514.85 2183.13ZM1515.01 2179.93C1520.79 2179.93 1525.17 2181.61 1528.14 2184.98 1531.11 2188.34 1532.6 2193.17 1532.6 2199.46 1532.6 2203.95 1531.85 2207.73 1530.37 2210.81 1528.88 2213.89 1526.77 2216.2 1524.05 2217.72 1521.32 2219.25 1518.09 2220.01 1514.36 2220.01 1508.74 2220.01 1504.45 2218.36 1501.49 2215.05 1498.53 2211.74 1497.05 2206.84 1497.05 2200.36 1497.05 2195.9 1497.83 2192.13 1499.38 2189.05 1500.94 2185.97 1503.07 2183.68 1505.77 2182.18 1508.47 2180.68 1511.55 2179.93 1515.01 2179.93Z" fill-rule="evenodd"/><text fill="#000000" fill-opacity="0" font-family="Arial,Arial_MSFontService,sans-serif" font-size="40.0815" x="1497.05" y="2215">o</text><path d="M1565.3 2201.37 1615.23 2201.37 1615.23 2206.76 1565.3 2206.76ZM1565.3 2184.55 1615.23 2184.55 1615.23 2189.94 1565.3 2189.94Z" fill-rule="evenodd"/><text fill="#000000" fill-opacity="0" font-family="Arial,Arial_MSFontService,sans-serif" font-size="22.209" x="1565.3" y="2203.98">=</text><path d="M1667.25 2117.31 1684.6 2117.31 1684.6 2120.72C1682.79 2121.1 1681.68 2121.47 1681.28 2121.86 1680.87 2122.24 1680.67 2122.84 1680.67 2123.64 1680.67 2124.34 1680.74 2125.05 1680.89 2125.75 1681.03 2126.46 1681.26 2127.33 1681.58 2128.38L1687.06 2148.06 1696.64 2117.31 1703.47 2117.31 1711.6 2148.06 1717.9 2128.64C1718.16 2127.94 1718.4 2127.17 1718.62 2126.34 1718.83 2125.5 1718.94 2124.72 1718.94 2124 1718.94 2123.11 1718.71 2122.43 1718.25 2121.96 1717.79 2121.49 1716.71 2121.08 1715.01 2120.73L1715.01 2117.31 1730.54 2117.31 1730.54 2120.7C1729.43 2120.98 1728.73 2121.19 1728.43 2121.35 1728.13 2121.52 1727.83 2121.75 1727.54 2122.07 1727.25 2122.38 1726.9 2122.93 1726.47 2123.7 1726.05 2124.48 1725.52 2125.7 1724.87 2127.36L1713.19 2157.11 1706.62 2157.11 1698.55 2127.23 1688.82 2157.11 1682.09 2157.11 1672.37 2127.07C1671.78 2125.22 1671.29 2123.93 1670.92 2123.22 1670.54 2122.5 1670.16 2121.99 1669.78 2121.67 1669.4 2121.36 1668.56 2121.03 1667.25 2120.69ZM1741.76 2116.95 1744.74 2116.95 1744.74 2146.17C1744.74 2148.41 1744.83 2149.9 1745.01 2150.66 1745.19 2151.42 1745.52 2151.99 1745.99 2152.35 1746.46 2152.72 1747.52 2153.11 1749.19 2153.54L1749.19 2156.92 1731.95 2156.92 1731.95 2153.56C1733.31 2153.14 1734.17 2152.83 1734.53 2152.64 1734.89 2152.44 1735.19 2152.18 1735.42 2151.86 1735.65 2151.54 1735.85 2150.98 1736.01 2150.18 1736.16 2149.38 1736.24 2148.09 1736.24 2146.29L1736.24 2128.97C1736.24 2127.3 1736.22 2125.99 1736.17 2125.01 1736.12 2124.03 1735.97 2123.3 1735.71 2122.81 1735.46 2122.32 1735.08 2121.95 1734.56 2121.71 1734.03 2121.46 1732.98 2121.2 1731.39 2120.92L1731.39 2117.35ZM1779.36 2116.67C1780.87 2116.67 1782.23 2116.85 1783.44 2117.21 1784.66 2117.57 1785.75 2118.13 1786.71 2118.9 1787.67 2119.67 1788.45 2120.6 1789.05 2121.69 1789.64 2122.78 1790.09 2124.08 1790.38 2125.6 1790.68 2127.12 1790.82 2128.98 1790.82 2131.19L1790.82 2146.17C1790.82 2148 1790.87 2149.28 1790.97 2150.02 1791.06 2150.75 1791.21 2151.29 1791.42 2151.64 1791.62 2151.99 1791.93 2152.29 1792.33 2152.53 1792.74 2152.78 1793.73 2153.12 1795.31 2153.56L1795.31 2156.92 1778 2156.92 1778 2153.56C1779.38 2153.14 1780.25 2152.83 1780.61 2152.64 1780.97 2152.44 1781.27 2152.19 1781.51 2151.86 1781.74 2151.54 1781.93 2150.97 1782.09 2150.16 1782.25 2149.35 1782.33 2148.07 1782.33 2146.33L1782.33 2135.92C1782.33 2134.11 1782.28 2132.46 1782.17 2130.97 1782.07 2129.49 1781.9 2128.3 1781.67 2127.41 1781.43 2126.51 1781.16 2125.83 1780.85 2125.35 1780.53 2124.88 1780.17 2124.48 1779.75 2124.15 1779.33 2123.82 1778.84 2123.56 1778.28 2123.36 1777.72 2123.16 1776.98 2123.06 1776.06 2123.06 1775.16 2123.06 1774.29 2123.24 1773.46 2123.61 1772.62 2123.98 1771.69 2124.64 1770.64 2125.58 1769.6 2126.52 1768.86 2127.43 1768.41 2128.3 1767.96 2129.18 1767.74 2130.19 1767.74 2131.35L1767.74 2146.17C1767.74 2148.41 1767.83 2149.9 1768.01 2150.66 1768.19 2151.42 1768.52 2151.99 1768.99 2152.35 1769.46 2152.72 1770.52 2153.11 1772.19 2153.54L1772.19 2156.92 1754.95 2156.92 1754.95 2153.56C1756.31 2153.14 1757.17 2152.83 1757.53 2152.64 1757.89 2152.44 1758.19 2152.18 1758.42 2151.86 1758.65 2151.54 1758.85 2150.98 1759.01 2150.18 1759.16 2149.38 1759.24 2148.09 1759.24 2146.29L1759.24 2128.97C1759.24 2127.3 1759.22 2125.99 1759.17 2125.01 1759.12 2124.03 1758.97 2123.3 1758.71 2122.81 1758.46 2122.32 1758.08 2121.95 1757.56 2121.71 1757.03 2121.46 1755.98 2121.2 1754.39 2120.92L1754.39 2117.35 1764.8 2116.95 1767.78 2116.95 1767.38 2123.02 1769.27 2121.16C1770.03 2120.48 1770.71 2119.92 1771.34 2119.48 1772.58 2118.6 1773.86 2117.92 1775.19 2117.42 1776.51 2116.92 1777.9 2116.67 1779.36 2116.67ZM1816.18 2116.63C1817.9 2116.63 1819.6 2116.72 1821.28 2116.9 1822.96 2117.08 1825.28 2117.47 1828.23 2118.07L1828.23 2127.63 1822.99 2127.63C1822.3 2125.77 1821.61 2124.43 1820.9 2123.62 1820.19 2122.81 1819.38 2122.23 1818.47 2121.9 1817.56 2121.56 1816.44 2121.39 1815.1 2121.39 1813.19 2121.39 1811.7 2121.82 1810.62 2122.67 1809.54 2123.52 1809 2124.68 1809 2126.14 1809 2127.22 1809.22 2128.09 1809.65 2128.78 1810.09 2129.47 1810.79 2130.13 1811.77 2130.76 1812.75 2131.4 1814.55 2132.28 1817.19 2133.4 1819.96 2134.59 1822.11 2135.7 1823.64 2136.72 1825.17 2137.74 1826.39 2138.96 1827.3 2140.38 1828.21 2141.8 1828.67 2143.48 1828.67 2145.42 1828.67 2147.63 1828.28 2149.51 1827.51 2151.06 1826.73 2152.61 1825.65 2153.87 1824.24 2154.84 1822.84 2155.82 1821.2 2156.51 1819.33 2156.93 1817.47 2157.34 1815.43 2157.55 1813.24 2157.55 1810.92 2157.55 1808.72 2157.39 1806.64 2157.05 1804.57 2156.72 1802.3 2156.23 1799.83 2155.58L1799.83 2145.84 1805.17 2145.84C1805.96 2148.51 1806.98 2150.34 1808.23 2151.32 1809.48 2152.3 1811.25 2152.79 1813.52 2152.79 1814.43 2152.79 1815.3 2152.7 1816.13 2152.52 1816.96 2152.34 1817.68 2152.05 1818.29 2151.66 1818.9 2151.26 1819.38 2150.72 1819.75 2150.04 1820.11 2149.36 1820.29 2148.49 1820.29 2147.44 1820.29 2146.26 1820.07 2145.3 1819.61 2144.57 1819.16 2143.84 1818.4 2143.14 1817.34 2142.47 1816.27 2141.8 1814.76 2140.91 1812.79 2139.79 1809.58 2138.73 1807.21 2137.7 1805.68 2136.71 1804.16 2135.71 1802.94 2134.5 1802.03 2133.08 1801.12 2131.67 1800.66 2129.99 1800.66 2128.05 1800.66 2125.7 1801.3 2123.66 1802.58 2121.93 1803.86 2120.19 1805.67 2118.87 1808.03 2117.98 1810.38 2117.08 1813.1 2116.63 1816.18 2116.63ZM1736 2101.73 1744.97 2101.73 1744.97 2111.06 1736 2111.06Z" fill="#13501B" fill-rule="evenodd"/><text fill="#000000" fill-opacity="0" font-family="Arial,Arial_MSFontService,sans-serif" font-size="55.8208" x="1667.25" y="2150.57">wins</text><path d="M1800.84 2239.02C1798.41 2239.02 1796.44 2240.03 1794.93 2242.05 1793.43 2244.06 1792.54 2246.73 1792.27 2250.04L1807.98 2250.04C1807.82 2247.84 1807.48 2245.88 1806.95 2244.16 1806.43 2242.43 1805.67 2241.15 1804.7 2240.3 1803.72 2239.45 1802.43 2239.02 1800.84 2239.02ZM1688.48 2239.02C1685.59 2239.02 1683.36 2240.31 1681.77 2242.9 1680.19 2245.48 1679.39 2249.27 1679.39 2254.27 1679.39 2259.59 1680.2 2263.61 1681.82 2266.34 1683.43 2269.06 1685.69 2270.42 1688.59 2270.42 1690.2 2270.42 1691.57 2270.04 1692.68 2269.26 1693.8 2268.49 1694.73 2267.42 1695.46 2266.05 1696.2 2264.68 1696.73 2263.07 1697.06 2261.22 1697.39 2259.37 1697.56 2257.43 1697.56 2255.38 1697.56 2251.59 1697.15 2248.46 1696.32 2246 1695.5 2243.54 1694.41 2241.77 1693.06 2240.67 1691.71 2239.57 1690.18 2239.02 1688.48 2239.02ZM1838.13 2234.26C1839.85 2234.26 1841.55 2234.35 1843.23 2234.53 1844.92 2234.71 1847.23 2235.1 1850.19 2235.7L1850.19 2245.26 1844.94 2245.26C1844.26 2243.4 1843.56 2242.06 1842.86 2241.25 1842.15 2240.44 1841.34 2239.86 1840.43 2239.53 1839.51 2239.19 1838.39 2239.02 1837.06 2239.02 1835.15 2239.02 1833.65 2239.45 1832.57 2240.3 1831.49 2241.15 1830.96 2242.31 1830.96 2243.77 1830.96 2244.85 1831.17 2245.73 1831.61 2246.41 1832.04 2247.1 1832.75 2247.76 1833.73 2248.39 1834.7 2249.03 1836.51 2249.91 1839.14 2251.03 1841.91 2252.22 1844.06 2253.33 1845.59 2254.35 1847.12 2255.37 1848.34 2256.59 1849.25 2258.01 1850.17 2259.43 1850.63 2261.11 1850.63 2263.05 1850.63 2265.26 1850.24 2267.14 1849.46 2268.69 1848.69 2270.24 1847.6 2271.5 1846.2 2272.48 1844.79 2273.45 1843.15 2274.14 1841.29 2274.56 1839.42 2274.97 1837.39 2275.18 1835.19 2275.18 1832.87 2275.18 1830.67 2275.02 1828.6 2274.69 1826.52 2274.35 1824.25 2273.86 1821.78 2273.21L1821.78 2263.47 1827.13 2263.47C1827.91 2266.14 1828.93 2267.97 1830.19 2268.95 1831.44 2269.93 1833.2 2270.42 1835.47 2270.42 1836.38 2270.42 1837.25 2270.33 1838.08 2270.15 1838.91 2269.97 1839.63 2269.68 1840.24 2269.29 1840.85 2268.89 1841.34 2268.36 1841.7 2267.67 1842.07 2266.99 1842.25 2266.12 1842.25 2265.07 1842.25 2263.89 1842.02 2262.93 1841.56 2262.2 1841.11 2261.47 1840.35 2260.77 1839.29 2260.1 1838.23 2259.44 1836.71 2258.54 1834.74 2257.42 1831.53 2256.36 1829.16 2255.33 1827.64 2254.34 1826.11 2253.34 1824.89 2252.13 1823.98 2250.72 1823.07 2249.3 1822.62 2247.62 1822.62 2245.68 1822.62 2243.34 1823.26 2241.29 1824.53 2239.56 1825.81 2237.82 1827.63 2236.51 1829.98 2235.61 1832.34 2234.71 1835.05 2234.26 1838.13 2234.26ZM1801.24 2234.26C1804.03 2234.26 1806.43 2234.71 1808.43 2235.61 1810.43 2236.52 1812.03 2237.76 1813.24 2239.33 1814.45 2240.91 1815.37 2242.85 1816.01 2245.15 1816.65 2247.46 1817.02 2250.73 1817.11 2254.96L1792.08 2254.96 1792.14 2257.06C1792.26 2259.16 1792.57 2260.96 1793.06 2262.46 1793.72 2264.46 1794.78 2266.01 1796.24 2267.11 1797.7 2268.21 1799.61 2268.75 1801.99 2268.75 1804.04 2268.75 1805.88 2268.37 1807.53 2267.6 1809.17 2266.84 1811.01 2265.5 1813.05 2263.59L1816.31 2267C1814.43 2269.18 1812.75 2270.78 1811.29 2271.82 1809.82 2272.86 1808.2 2273.68 1806.41 2274.28 1804.63 2274.88 1802.66 2275.18 1800.52 2275.18 1794.81 2275.18 1790.49 2273.46 1787.57 2270.02 1784.64 2266.59 1783.18 2261.57 1783.18 2254.98 1783.18 2250.91 1783.92 2247.31 1785.4 2244.16 1786.87 2241.02 1788.99 2238.58 1791.75 2236.85 1794.5 2235.13 1797.67 2234.26 1801.24 2234.26ZM1764.13 2234.26C1765.85 2234.26 1767.55 2234.35 1769.23 2234.53 1770.92 2234.71 1773.23 2235.1 1776.19 2235.7L1776.19 2245.26 1770.94 2245.26C1770.26 2243.4 1769.56 2242.06 1768.86 2241.25 1768.15 2240.44 1767.34 2239.86 1766.43 2239.53 1765.51 2239.19 1764.39 2239.02 1763.06 2239.02 1761.15 2239.02 1759.65 2239.45 1758.57 2240.3 1757.49 2241.15 1756.96 2242.31 1756.96 2243.77 1756.96 2244.85 1757.17 2245.73 1757.61 2246.41 1758.04 2247.1 1758.75 2247.76 1759.73 2248.39 1760.7 2249.03 1762.51 2249.91 1765.14 2251.03 1767.91 2252.22 1770.06 2253.33 1771.59 2254.35 1773.12 2255.37 1774.34 2256.59 1775.25 2258.01 1776.17 2259.43 1776.63 2261.11 1776.63 2263.05 1776.63 2265.26 1776.24 2267.14 1775.46 2268.69 1774.69 2270.24 1773.6 2271.5 1772.2 2272.48 1770.79 2273.45 1769.15 2274.14 1767.29 2274.56 1765.42 2274.97 1763.39 2275.18 1761.19 2275.18 1758.87 2275.18 1756.68 2275.02 1754.6 2274.69 1752.52 2274.35 1750.25 2273.86 1747.78 2273.21L1747.78 2263.47 1753.13 2263.47C1753.91 2266.14 1754.93 2267.97 1756.19 2268.95 1757.44 2269.93 1759.2 2270.42 1761.47 2270.42 1762.38 2270.42 1763.25 2270.33 1764.08 2270.15 1764.91 2269.97 1765.63 2269.68 1766.24 2269.29 1766.85 2268.89 1767.34 2268.36 1767.7 2267.67 1768.07 2266.99 1768.25 2266.12 1768.25 2265.07 1768.25 2263.89 1768.02 2262.93 1767.56 2262.2 1767.11 2261.47 1766.35 2260.77 1765.29 2260.1 1764.23 2259.44 1762.71 2258.54 1760.74 2257.42 1757.53 2256.36 1755.16 2255.33 1753.64 2254.34 1752.11 2253.34 1750.89 2252.13 1749.98 2250.72 1749.07 2249.3 1748.62 2247.62 1748.62 2245.68 1748.62 2243.34 1749.26 2241.29 1750.53 2239.56 1751.81 2237.82 1753.63 2236.51 1755.98 2235.61 1758.34 2234.71 1761.05 2234.26 1764.13 2234.26ZM1729.13 2234.26C1730.85 2234.26 1732.55 2234.35 1734.23 2234.53 1735.92 2234.71 1738.23 2235.1 1741.19 2235.7L1741.19 2245.26 1735.94 2245.26C1735.26 2243.4 1734.56 2242.06 1733.86 2241.25 1733.15 2240.44 1732.34 2239.86 1731.43 2239.53 1730.51 2239.19 1729.39 2239.02 1728.06 2239.02 1726.15 2239.02 1724.65 2239.45 1723.57 2240.3 1722.49 2241.15 1721.96 2242.31 1721.96 2243.77 1721.96 2244.85 1722.17 2245.73 1722.61 2246.41 1723.04 2247.1 1723.75 2247.76 1724.73 2248.39 1725.7 2249.03 1727.51 2249.91 1730.14 2251.03 1732.91 2252.22 1735.06 2253.33 1736.59 2254.35 1738.12 2255.37 1739.34 2256.59 1740.25 2258.01 1741.17 2259.43 1741.63 2261.11 1741.63 2263.05 1741.63 2265.26 1741.24 2267.14 1740.46 2268.69 1739.69 2270.24 1738.6 2271.5 1737.2 2272.48 1735.79 2273.45 1734.15 2274.14 1732.29 2274.56 1730.42 2274.97 1728.39 2275.18 1726.19 2275.18 1723.87 2275.18 1721.68 2275.02 1719.6 2274.69 1717.52 2274.35 1715.25 2273.86 1712.78 2273.21L1712.78 2263.47 1718.13 2263.47C1718.91 2266.14 1719.93 2267.97 1721.19 2268.95 1722.44 2269.93 1724.2 2270.42 1726.47 2270.42 1727.38 2270.42 1728.25 2270.33 1729.08 2270.15 1729.91 2269.97 1730.63 2269.68 1731.24 2269.29 1731.85 2268.89 1732.34 2268.36 1732.7 2267.67 1733.07 2266.99 1733.25 2266.12 1733.25 2265.07 1733.25 2263.89 1733.02 2262.93 1732.56 2262.2 1732.11 2261.47 1731.35 2260.77 1730.29 2260.1 1729.23 2259.44 1727.71 2258.54 1725.74 2257.42 1722.53 2256.36 1720.16 2255.33 1718.64 2254.34 1717.11 2253.34 1715.89 2252.13 1714.98 2250.72 1714.07 2249.3 1713.62 2247.62 1713.62 2245.68 1713.62 2243.34 1714.26 2241.29 1715.53 2239.56 1716.81 2237.82 1718.63 2236.51 1720.98 2235.61 1723.34 2234.71 1726.05 2234.26 1729.13 2234.26ZM1688.63 2234.26C1694.56 2234.26 1699.05 2236 1702.12 2239.48 1705.2 2242.95 1706.73 2247.87 1706.73 2254.23 1706.73 2258.73 1705.97 2262.56 1704.45 2265.72 1702.92 2268.88 1700.75 2271.24 1697.94 2272.82 1695.12 2274.39 1691.81 2275.18 1688 2275.18 1682.24 2275.18 1677.84 2273.48 1674.79 2270.07 1671.74 2266.66 1670.22 2261.67 1670.22 2255.1 1670.22 2250.59 1671.01 2246.77 1672.6 2243.62 1674.19 2240.48 1676.37 2238.13 1679.16 2236.59 1681.95 2235.04 1685.11 2234.26 1688.63 2234.26ZM1657.21 2216.06 1660.17 2216.06 1660.17 2263.8C1660.17 2266.04 1660.27 2267.53 1660.45 2268.29 1660.63 2269.06 1660.95 2269.62 1661.43 2269.99 1661.9 2270.35 1662.96 2270.75 1664.62 2271.17L1664.62 2274.55 1647.19 2274.55 1647.19 2271.17C1648.82 2270.75 1649.84 2270.39 1650.25 2270.09 1650.67 2269.79 1650.96 2269.44 1651.14 2269.03 1651.32 2268.61 1651.46 2267.98 1651.55 2267.14 1651.63 2266.29 1651.68 2265.18 1651.68 2263.8L1651.68 2230.54C1651.68 2228.03 1651.66 2226.29 1651.62 2225.32 1651.58 2224.36 1651.48 2223.56 1651.33 2222.91 1651.17 2222.27 1650.98 2221.8 1650.76 2221.51 1650.54 2221.22 1650.22 2220.98 1649.79 2220.79 1649.37 2220.59 1648.29 2220.34 1646.55 2220.03L1646.55 2216.51Z" fill="#C00000" fill-rule="evenodd"/><text fill="#000000" fill-opacity="0" font-family="Arial,Arial_MSFontService,sans-serif" font-size="59.1187" x="1646.55" y="2267.79">losses</text><path d="M1644.4 2193.36 1853.4 2193.36 1853.4 2198.36 1644.4 2198.36Z" fill-rule="evenodd"/><path d="M1882.12 2201.37 1932.05 2201.37 1932.05 2206.76 1882.12 2206.76ZM1882.12 2184.55 1932.05 2184.55 1932.05 2189.94 1882.12 2189.94Z" fill-rule="evenodd"/><text fill="#000000" fill-opacity="0" font-family="Arial,Arial_MSFontService,sans-serif" font-size="22.209" x="1882.12" y="2203.98">=</text><path d="M2034.63 2100.95C2039.74 2100.95 2043.82 2101.99 2046.87 2104.07 2049.93 2106.15 2051.45 2109.05 2051.45 2112.78 2051.45 2115.92 2050.55 2118.62 2048.76 2120.89 2046.96 2123.16 2043.96 2125.26 2039.74 2127.21L2039.74 2127.57C2043.69 2128.3 2046.8 2129.88 2049.08 2132.32 2051.36 2134.75 2052.51 2137.76 2052.51 2141.35 2052.51 2144.49 2051.74 2147.28 2050.22 2149.72 2048.69 2152.17 2046.37 2154.09 2043.27 2155.48 2040.16 2156.87 2036.39 2157.56 2031.96 2157.56 2028.91 2157.56 2025.91 2157.29 2022.96 2156.73 2020.02 2156.18 2017.45 2155.4 2015.26 2154.4L2015.26 2144.23 2022.56 2144.23C2023.34 2147.31 2024.45 2149.55 2025.88 2150.94 2027.31 2152.33 2029.19 2153.02 2031.51 2153.02 2037.24 2153.02 2040.11 2149.49 2040.11 2142.41 2040.11 2138.6 2039.1 2135.76 2037.09 2133.9 2035.07 2132.03 2032.01 2131.1 2027.91 2131.1L2024.7 2131.1 2024.7 2126.48C2029.41 2126.29 2032.97 2125.19 2035.4 2123.18 2037.84 2121.16 2039.05 2118.25 2039.05 2114.44 2039.05 2111.44 2038.44 2109.18 2037.23 2107.65 2036.01 2106.13 2034.24 2105.36 2031.92 2105.36 2029.65 2105.36 2027.78 2106.18 2026.33 2107.8 2024.87 2109.42 2023.87 2111.8 2023.33 2114.93L2016.03 2114.93 2016.03 2105.32C2022.87 2102.41 2029.07 2100.95 2034.63 2100.95ZM1985.51 2100.95C1989.48 2100.95 1992.73 2101.48 1995.24 2102.55 1997.75 2103.62 1999.57 2105.06 2000.69 2106.88 2001.81 2108.71 2002.37 2110.84 2002.37 2113.27 2002.37 2115.4 2001.97 2117.39 2001.18 2119.23 2000.38 2121.06 1999 2123.16 1997.04 2125.51 1995.08 2127.86 1991.78 2131.22 1987.13 2135.6 1985.7 2136.95 1983.99 2138.73 1982.01 2140.93 1980.02 2143.13 1978.45 2145.01 1977.29 2146.58L1977.29 2146.99 1991.67 2146.99C1993.43 2146.99 1994.74 2146.86 1995.6 2146.6 1996.47 2146.34 1997.15 2145.9 1997.65 2145.26 1998.15 2144.63 1998.56 2143.68 1998.89 2142.41L2003.55 2142.41 2002.61 2156.92 1965.49 2156.92 1965.49 2154.24C1967.57 2149.46 1971.83 2143.3 1978.26 2135.76 1981.18 2132.33 1983.4 2129.51 1984.92 2127.29 1986.45 2125.07 1987.59 2122.98 1988.35 2121.01 1989.11 2119.04 1989.48 2117 1989.48 2114.89 1989.48 2111.92 1988.82 2109.59 1987.5 2107.9 1986.17 2106.21 1984.36 2105.36 1982.07 2105.36 1977.66 2105.36 1974.84 2108.54 1973.6 2114.89L1966.3 2114.89 1966.3 2105.32C1970.71 2103.54 1974.26 2102.37 1976.96 2101.8 1979.66 2101.23 1982.51 2100.95 1985.51 2100.95Z" fill="#13501B" fill-rule="evenodd"/><text fill="#000000" fill-opacity="0" font-family="Arial,Arial_MSFontService,sans-serif" font-size="56.6167" x="1965.49" y="2150.49"></text><path d="M2034.71 2248.08C2031.93 2248.08 2029.84 2249.02 2028.43 2250.9 2027.03 2252.78 2026.33 2255.49 2026.33 2259.02 2026.33 2262.89 2027.04 2265.79 2028.45 2267.74 2029.87 2269.68 2031.99 2270.66 2034.8 2270.66 2037.52 2270.66 2039.59 2269.7 2041 2267.78 2042.4 2265.86 2043.1 2263.17 2043.1 2259.71 2043.1 2256.09 2042.35 2253.25 2040.83 2251.18 2039.32 2249.12 2037.28 2248.08 2034.71 2248.08ZM2034.92 2223.12C2032.24 2223.12 2030.22 2223.93 2028.86 2225.55 2027.49 2227.17 2026.81 2229.56 2026.81 2232.72 2026.81 2236.26 2027.51 2238.97 2028.9 2240.85 2030.29 2242.73 2032.32 2243.66 2035 2243.66 2037.62 2243.66 2039.58 2242.78 2040.9 2241.01 2042.21 2239.24 2042.86 2236.72 2042.86 2233.45 2042.86 2230.1 2042.18 2227.54 2040.81 2225.77 2039.45 2224 2037.48 2223.12 2034.92 2223.12ZM2035.12 2218.58C2041.69 2218.58 2046.64 2219.78 2049.99 2222.19 2053.34 2224.59 2055.02 2227.99 2055.02 2232.4 2055.02 2235.32 2054.26 2237.87 2052.73 2240.06 2051.2 2242.25 2048.9 2244 2045.82 2245.33L2045.9 2245.85C2049.03 2247.07 2051.41 2248.83 2053.01 2251.12 2054.62 2253.42 2055.42 2256.16 2055.42 2259.35 2055.42 2262.54 2054.57 2265.33 2052.87 2267.72 2051.17 2270.11 2048.72 2271.96 2045.52 2273.27 2042.31 2274.58 2038.57 2275.24 2034.27 2275.24 2030.19 2275.24 2026.63 2274.63 2023.59 2273.43 2020.55 2272.23 2018.19 2270.47 2016.52 2268.16 2014.84 2265.85 2014.01 2263.13 2014.01 2260 2014.01 2256.94 2014.79 2254.3 2016.36 2252.05 2017.92 2249.81 2020.37 2247.96 2023.69 2246.5L2023.61 2245.97C2017.64 2243.38 2014.65 2239.07 2014.65 2233.05 2014.65 2230.29 2015.51 2227.81 2017.23 2225.61 2018.94 2223.41 2021.38 2221.69 2024.54 2220.44 2027.7 2219.2 2031.23 2218.58 2035.12 2218.58ZM1988.67 2218.58 1993.86 2218.58C1993.7 2221.17 1993.62 2224.77 1993.62 2229.36L1993.62 2263.24C1993.62 2264.81 1993.71 2265.99 1993.88 2266.79 1994.06 2267.58 1994.37 2268.23 1994.81 2268.73 1995.26 2269.23 1995.9 2269.62 1996.74 2269.91 1997.58 2270.19 1998.63 2270.41 1999.9 2270.55 2001.17 2270.7 2002.84 2270.8 2004.92 2270.86L2004.92 2274.55 1969.95 2274.55 1969.95 2270.86C1972.95 2270.72 1975.09 2270.54 1976.37 2270.31 1977.66 2270.08 1978.64 2269.74 1979.31 2269.28 1979.99 2268.82 1980.48 2268.17 1980.79 2267.33 1981.1 2266.5 1981.26 2265.13 1981.26 2263.24L1981.26 2233.94C1981.26 2232.83 1981.05 2232.03 1980.63 2231.55 1980.21 2231.06 1979.64 2230.82 1978.91 2230.82 1978.23 2230.82 1977.28 2231.13 1976.05 2231.75 1974.82 2232.37 1972.8 2233.64 1969.99 2235.56L1967.52 2231.26Z" fill="#C00000" fill-rule="evenodd"/><text fill="#000000" fill-opacity="0" font-family="Arial,Arial_MSFontService,sans-serif" font-size="56.6572" x="1967.52" y="2268.15"></text><path d="M1960.4 2193.36 2059.4 2193.36 2059.4 2198.36 1960.4 2198.36Z" fill-rule="evenodd"/><path d="M2101.9 2196.75C2105.15 2196.75 2109.01 2198.17 2113.5 2201 2117.98 2203.84 2121.39 2205.26 2123.71 2205.26 2126.01 2205.26 2127.92 2204.65 2129.46 2203.44 2131 2202.22 2132.56 2200.33 2134.12 2197.76L2137.37 2199.95C2136.2 2202.36 2134.37 2204.78 2131.85 2207.23 2129.34 2209.67 2126.29 2210.89 2122.7 2210.89 2119.24 2210.89 2115.29 2209.47 2110.84 2206.64 2106.4 2203.8 2103 2202.38 2100.65 2202.38 2098.68 2202.38 2096.95 2203 2095.46 2204.25 2093.97 2205.49 2092.66 2207.3 2091.53 2209.68L2088.37 2207.89C2089.75 2204.71 2091.57 2202.05 2093.84 2199.93 2096.11 2197.81 2098.8 2196.75 2101.9 2196.75ZM2101.9 2180.66C2105.15 2180.66 2109.01 2182.08 2113.5 2184.92 2117.98 2187.75 2121.39 2189.17 2123.71 2189.17 2126.01 2189.17 2127.92 2188.56 2129.46 2187.35 2131 2186.13 2132.56 2184.24 2134.12 2181.67L2137.37 2183.86C2136.2 2186.27 2134.37 2188.69 2131.85 2191.14 2129.34 2193.58 2126.29 2194.8 2122.7 2194.8 2119.24 2194.8 2115.29 2193.39 2110.84 2190.55 2106.4 2187.71 2103 2186.29 2100.65 2186.29 2098.68 2186.29 2096.95 2186.91 2095.46 2188.16 2093.97 2189.4 2092.66 2191.21 2091.53 2193.59L2088.37 2191.8C2089.75 2188.62 2091.57 2185.96 2093.84 2183.84 2096.11 2181.72 2098.8 2180.66 2101.9 2180.66Z" fill-rule="evenodd"/><text fill="#000000" fill-opacity="0" font-family="Arial,Arial_MSFontService,sans-serif" font-size="30.2334" x="2088.37" y="2207.11"></text><path d="M2192.16 2163.4 2194.39 2163.4C2194.22 2165.99 2194.14 2169.58 2194.14 2174.18L2194.14 2208.79C2194.14 2210.35 2194.23 2211.53 2194.41 2212.33 2194.58 2213.13 2194.89 2213.78 2195.34 2214.28 2195.78 2214.78 2196.43 2215.17 2197.26 2215.45 2198.1 2215.74 2199.15 2215.95 2200.42 2216.1 2201.69 2216.25 2203.37 2216.35 2205.45 2216.4L2205.45 2219.36 2175.5 2219.36 2175.5 2216.4C2178.5 2216.27 2180.64 2216.09 2181.92 2215.86 2183.21 2215.63 2184.19 2215.28 2184.86 2214.82 2185.54 2214.36 2186.03 2213.72 2186.34 2212.88 2186.65 2212.04 2186.81 2210.68 2186.81 2208.79L2186.81 2175.92C2186.81 2174.84 2186.62 2174.05 2186.24 2173.55 2185.86 2173.05 2185.31 2172.8 2184.58 2172.8 2183.71 2172.8 2182.48 2173.24 2180.89 2174.13 2179.3 2175.03 2177.32 2176.26 2174.97 2177.82L2173.19 2174.7Z" fill-rule="evenodd"/><text fill="#000000" fill-opacity="0" font-family="Arial,Arial_MSFontService,sans-serif" font-size="55.9683" x="2173.19" y="2212.37">1</text><path d="M2216.23 2209.96 2224.41 2209.96 2224.41 2219.36 2216.23 2219.36Z" fill-rule="evenodd"/><text fill="#000000" fill-opacity="0" font-family="Arial,Arial_MSFontService,sans-serif" font-size="9.40234" x="2216.23" y="2218.19">.</text><path d="M2297.98 2192.37C2295.98 2192.37 2294.29 2192.68 2292.93 2193.3 2291.57 2193.93 2290.46 2194.76 2289.61 2195.82 2288.76 2196.87 2288.15 2198.11 2287.78 2199.53 2287.42 2200.94 2287.24 2202.46 2287.24 2204.08 2287.24 2205.84 2287.44 2207.48 2287.84 2209.01 2288.25 2210.54 2288.89 2211.85 2289.77 2212.96 2290.65 2214.07 2291.77 2214.95 2293.15 2215.59 2294.53 2216.24 2296.21 2216.57 2298.18 2216.57 2300.39 2216.57 2302.29 2216.11 2303.87 2215.21 2305.45 2214.3 2306.66 2212.96 2307.48 2211.18 2308.3 2209.39 2308.72 2207.29 2308.72 2204.85 2308.72 2202.26 2308.27 2200.02 2307.38 2198.15 2306.49 2196.27 2305.23 2194.84 2303.61 2193.85 2301.99 2192.87 2300.11 2192.37 2297.98 2192.37ZM2298.18 2166.84C2294.77 2166.84 2292.17 2167.77 2290.38 2169.62 2288.58 2171.47 2287.68 2174.09 2287.68 2177.5 2287.68 2179.09 2287.87 2180.59 2288.25 2182 2288.63 2183.4 2289.24 2184.62 2290.07 2185.64 2290.91 2186.67 2292 2187.49 2293.34 2188.1 2294.67 2188.7 2296.31 2189.01 2298.26 2189.01 2300.5 2189.01 2302.39 2188.57 2303.91 2187.69 2305.44 2186.81 2306.57 2185.53 2307.32 2183.84 2308.06 2182.15 2308.43 2180.2 2308.43 2177.98 2308.43 2175.55 2307.99 2173.49 2307.11 2171.8 2306.24 2170.12 2305.03 2168.87 2303.49 2168.06 2301.95 2167.25 2300.18 2166.84 2298.18 2166.84ZM2298.26 2163.4C2302.15 2163.4 2305.42 2163.94 2308.07 2165.04 2310.71 2166.13 2312.71 2167.71 2314.04 2169.78 2315.38 2171.84 2316.05 2174.32 2316.05 2177.21 2316.05 2180.19 2315.32 2182.75 2313.86 2184.89 2312.4 2187.04 2310.15 2188.79 2307.09 2190.14L2307.18 2190.67C2310.23 2191.86 2312.54 2193.59 2314.11 2195.88 2315.67 2198.16 2316.46 2200.91 2316.46 2204.12 2316.46 2207.29 2315.7 2210.07 2314.19 2212.47 2312.67 2214.88 2310.48 2216.74 2307.6 2218.05 2304.72 2219.36 2301.37 2220.01 2297.53 2220.01 2293.94 2220.01 2290.78 2219.41 2288.07 2218.21 2285.35 2217.01 2283.24 2215.25 2281.74 2212.94 2280.24 2210.63 2279.5 2207.91 2279.5 2204.77 2279.5 2202.42 2279.9 2200.38 2280.71 2198.65 2281.52 2196.92 2282.58 2195.5 2283.89 2194.38 2285.2 2193.26 2286.86 2192.24 2288.86 2191.32L2288.78 2190.79C2282.97 2188.28 2280.06 2183.97 2280.06 2177.86 2280.06 2175.08 2280.83 2172.59 2282.35 2170.41 2283.88 2168.22 2286.05 2166.5 2288.88 2165.26 2291.7 2164.02 2294.83 2163.4 2298.26 2163.4ZM2252.3 2163.4C2257.33 2163.4 2261.12 2164.5 2263.69 2166.7 2266.25 2168.9 2267.54 2172.09 2267.54 2176.28 2267.54 2177.71 2267.4 2179.03 2267.11 2180.23 2266.83 2181.44 2266.38 2182.63 2265.78 2183.8 2265.17 2184.98 2264.35 2186.24 2263.32 2187.59 2262.3 2188.94 2261.16 2190.31 2259.92 2191.7 2258.68 2193.09 2256.53 2195.41 2253.48 2198.65 2248.34 2204.08 2244.57 2208.83 2242.17 2212.88L2257.45 2212.88C2258.77 2212.88 2259.84 2212.8 2260.65 2212.64 2261.46 2212.47 2262.11 2212.2 2262.59 2211.83 2263.08 2211.45 2263.47 2210.95 2263.75 2210.35 2264.03 2209.74 2264.39 2208.8 2264.82 2207.53L2268.27 2207.53 2267.58 2219.36 2234.22 2219.36 2234.22 2217.42C2235.39 2214.58 2236.95 2211.68 2238.93 2208.7 2240.9 2205.73 2243.69 2202.23 2247.31 2198.21 2250.45 2194.75 2252.71 2192.13 2254.08 2190.35 2255.6 2188.4 2256.72 2186.72 2257.47 2185.3 2258.21 2183.88 2258.74 2182.54 2259.07 2181.29 2259.39 2180.03 2259.55 2178.77 2259.55 2177.5 2259.55 2175.47 2259.23 2173.68 2258.58 2172.13 2257.93 2170.58 2256.94 2169.35 2255.6 2168.46 2254.27 2167.57 2252.58 2167.12 2250.56 2167.12 2245.5 2167.12 2242.1 2169.93 2240.34 2175.55L2235.44 2175.55 2235.44 2167.77C2238.71 2166.23 2241.77 2165.12 2244.62 2164.43 2247.47 2163.74 2250.03 2163.4 2252.3 2163.4Z" fill-rule="evenodd"/><text fill="#000000" fill-opacity="0" font-family="Arial,Arial_MSFontService,sans-serif" font-size="56.6167" x="2234.22" y="2212.93">28</text></g></svg>